<svg xmlns="http://www.w3.org/2000/svg" width="1052" height="546" viewBox="0 0 1052 546">
    <defs>
        <path id="a" d="M.147.356h840.517v658.698H.147z"/>
    </defs>
    <g fill="none" fill-rule="evenodd">
        <path fill="#DFF3FB" d="M1013.469 310.111c-36.073-43.267-105.001-49.537-148.303-86.2-46.897-39.707-59.091-95.808-99.379-141.67-16.802-19.128-35.948-46.235-58.802-58.75C686.398 12.217 664.186 2.38 639.479.473c-30.96-2.392-64.594 8.502-90.243 29.23-25.238 20.397-43.409 49.91-72.67 63.65-36.747 17.256-76.226 4.9-112.117 2.39-41.962-2.936-85.493 20.298-99.762 59.447-6.397 17.552-6.42 36.734-3.48 55.109 2.995 18.714 9.336 37.675 21.736 52.708 13.097 15.876 30.388 27.977 41.885 45.255 13.634 20.492 12.536 48.15 8.054 74.013-4.484 25.867-11.97 52.101-9.73 77.395 3.292 37.178 29.27 69.012 65.519 80.294 46.538 14.48 100.952-3.752 150.42-22.563 44.288-16.842 95.45-36.565 141.68-33.408 48.761 3.33 88.96 34.19 135.297 44.446 59.305 13.123 131.29-5.637 176.79-52.68 45.498-47.043 57.293-121.647 20.61-165.648"/>
        <path fill="#D5ADC6" d="M816.04 117.396l-.584-.873 5.73-3.88.608.86a142.168 142.168 0 0 1-5.753 3.893"/>
        <path fill="#7FD1EF" d="M756.71 118.275l-2.363 14.456 19.195-.133c13.198-1.343 26.853-6.393 40.57-15.011l-14.863.226 22.253-5.217c9.639-6.98 16.831-14.007 21.282-18.824-5.939-3.281-20.135-1.526-20.282-1.507l-.167-1.018c10.026-2.065 15.68-2.513 19.81-2.84 2.216-.175 3.982-.316 5.733-.654 5.571-7.237 8.311-16.047 10.96-24.568.637-2.05 1.245-4.005 1.883-5.906-16.745 7.43-21.33 8.295-21.519 8.33l-.26-.993c7.757-2.719 13.404-6.417 18.386-9.68 1.832-1.2 3.565-2.336 5.243-3.312 6.762-22.227 3.318-33.327 2.494-35.467-5.8 1.612-16.116 5.646-23.7 8.611a537.812 537.812 0 0 1-6.65 2.574c-5.46 11.116-10.193 25.865-10.24 26.013l-1.44 4.504.44-4.709c.655-7.037 3.538-16.61 5.987-23.766-6.656 2.665-7.107 2.958-10.712 5.31a333.79 333.79 0 0 1-2.97 1.919c-5.973 11.234-11.295 32.394-11.348 32.606l-1.139 4.563.128-4.701c.226-8.33 3.347-20.42 5.465-27.745-10.509 7.763-19.11 16.849-26.978 28.48-2.05 10.65-3.009 21.8-3.02 21.913l-.39 4.611-.63-4.584c-.527-3.843-.607-8.963-.243-15.242-7.18 11.868-13.35 25.295-19.861 39.471l-1.053 2.29zm-3.575 15.493l2.615-15.86 1.081-2.353c6.85-14.914 13.32-29 21.004-41.349l1.093-1.757-.145 2.066c-.307 4.33-.414 8.145-.325 11.41.496-4.29 1.307-10.433 2.462-16.408l.079-.19c8.255-12.223 17.312-21.666 28.505-29.714l1.218-.876-.426 1.441c-1.662 5.61-4.241 15.089-5.34 23.155 2.03-7.19 5.85-19.61 9.984-27.327l.062-.118.115-.072c1.261-.804 2.25-1.448 3.074-1.986 3.863-2.52 4.179-2.725 11.933-5.819l1.046-.417-.371 1.065c-1.888 5.433-4.131 12.526-5.41 18.813 1.912-5.417 5.064-13.82 8.496-20.77l.091-.183.192-.073c1.693-.63 4.083-1.564 6.825-2.638 7.797-3.048 18.475-7.225 24.237-8.765l.406-.108.186.377c.226.454 5.438 11.42-2.327 36.808l-.06.195-.176.1c-1.708.985-3.487 2.15-5.369 3.383-2.466 1.614-5.093 3.335-8.056 4.994 3.03-1.22 6.83-2.826 11.546-4.933l1.082-.483-.39 1.123c-.775 2.238-1.493 4.548-2.254 6.993-2.694 8.668-5.482 17.632-11.247 25.046l-.117.15-.186.038c-1.873.377-3.714.523-6.042.708-2.795.222-6.292.5-11.39 1.303h.075c4.614 0 9.962.499 12.96 2.491l.503.333-.408.444c-4.456 4.874-11.881 12.21-21.947 19.485l-.182.085-13.062 3.063 8.928-.137-1.505.975c-14.369 9.304-28.7 14.738-42.6 16.149l-20.463.143z"/>
        <path fill="#7FD1EF" d="M753.63 133.24l-.495-.902c47.323-25.883 97.929-100.282 98.434-101.03l.858.575c-.509.75-51.25 75.353-98.796 101.357"/>
        <path fill="#B290B7" d="M458.477 201.101a.378.378 0 0 1-.046-.156c-.014-.223.178-.413.428-.426a51.07 51.07 0 0 0 2.24-.157c.25-.023.473.14.498.36.026.222-.156.42-.406.443-.759.07-1.518.122-2.282.16a.467.467 0 0 1-.432-.224"/>
        <path fill="#32B9D1" d="M502.497 128.366a.452.452 0 0 1 .771-.464 30.771 30.771 0 0 1 2.305 3.726l.092.179a.452.452 0 0 1-.804.412l-.087-.17a29.585 29.585 0 0 0-2.237-3.618.365.365 0 0 1-.04-.065zm5.384 12.333a.444.444 0 0 1-.036-.103 35.537 35.537 0 0 0-1.22-4.288.452.452 0 0 1 .85-.302c.502 1.41.923 2.89 1.252 4.396a.452.452 0 0 1-.846.297zm-11.678-18.766a.452.452 0 0 1 .676-.56 30.498 30.498 0 0 1 3.44 3.027.452.452 0 0 1-.647.63 29.58 29.58 0 0 0-3.337-2.937.461.461 0 0 1-.132-.16zm12.6 27.735a.426.426 0 0 1-.045-.2 42.768 42.768 0 0 0-.214-4.464.45.45 0 1 1 .898-.092c.15 1.49.224 3.025.218 4.559a.45.45 0 0 1-.856.197zm-20.562-31.915a.452.452 0 0 1 .544-.63 26.619 26.619 0 0 1 4.225 1.788.452.452 0 0 1-.422.799 25.77 25.77 0 0 0-4.08-1.727.451.451 0 0 1-.267-.23zm19.652 40.89a.444.444 0 0 1-.039-.286 47.99 47.99 0 0 0 .665-4.425.451.451 0 1 1 .897.092 49.031 49.031 0 0 1-.675 4.508.451.451 0 0 1-.848.111zm-2.557 8.65a.45.45 0 0 1-.016-.366 49.273 49.273 0 0 0 1.466-4.227.451.451 0 1 1 .866.256 50.154 50.154 0 0 1-1.492 4.305.451.451 0 0 1-.824.032zm-26-50.655a.451.451 0 0 1 .38-.65 27.31 27.31 0 0 1 3.064-.002c.511.03 1.017.077 1.522.14a.452.452 0 0 1-.11.895 23.16 23.16 0 0 0-1.464-.133 26.335 26.335 0 0 0-2.963 0 .452.452 0 0 1-.43-.25zm21.936 58.712a.452.452 0 0 1 .02-.438 52.306 52.306 0 0 0 2.188-3.906.452.452 0 1 1 .805.407 53.017 53.017 0 0 1-2.224 3.974.451.451 0 0 1-.789-.037zm-30.851-57.324a.449.449 0 0 1 .311-.641c1.412-.304 2.929-.62 4.45-.874a.452.452 0 0 1 .15.89 100.24 100.24 0 0 0-4.41.867.453.453 0 0 1-.501-.242zm25.493 64.585a.45.45 0 0 1 .066-.497 55.055 55.055 0 0 0 2.804-3.492.452.452 0 1 1 .726.537 56.018 56.018 0 0 1-2.85 3.549.452.452 0 0 1-.746-.097zm-34.37-62.926a.451.451 0 0 1 .355-.648c1.3-.15 2.705-.378 4.42-.717a.45.45 0 1 1 .176.886c-1.74.344-3.168.575-4.495.727a.453.453 0 0 1-.456-.248zm27.915 69.231a.453.453 0 0 1 .116-.546 56.627 56.627 0 0 0 3.326-3 .452.452 0 1 1 .63.646 57.247 57.247 0 0 1-3.378 3.048.452.452 0 0 1-.694-.148zm-36.88-69.67a.45.45 0 0 1 .518-.636c.288.074.58.141.874.204 1.121.234 2.262.372 3.488.419a.453.453 0 0 1-.034.902 21.992 21.992 0 0 1-3.64-.437 20.567 20.567 0 0 1-.914-.214.453.453 0 0 1-.292-.238zm-8.032-3.985a.453.453 0 0 1 .676-.562 25.263 25.263 0 0 0 3.752 2.35.452.452 0 0 1-.407.807 26.183 26.183 0 0 1-3.887-2.434.46.46 0 0 1-.134-.161zm37.542 78.861a.453.453 0 0 1 .175-.589 56.717 56.717 0 0 0 3.758-2.434.45.45 0 0 1 .629.108.454.454 0 0 1-.108.629 57.64 57.64 0 0 1-3.82 2.476.451.451 0 0 1-.634-.19zm-44.042-85.11a.452.452 0 0 1 .748-.495 51.115 51.115 0 0 0 3.055 3.27.45.45 0 1 1-.631.647 52.893 52.893 0 0 1-3.109-3.327.494.494 0 0 1-.063-.095zm-5.576-7.11a.452.452 0 0 1 .767-.47c.89 1.201 1.793 2.41 2.719 3.6a.451.451 0 0 1-.714.554 222.773 222.773 0 0 1-2.73-3.614.601.601 0 0 1-.042-.07zm-5.498-7.167a.452.452 0 0 1 .755-.485 140.75 140.75 0 0 1 2.803 3.56.452.452 0 0 1-.718.548 141.676 141.676 0 0 0-2.784-3.537.42.42 0 0 1-.056-.086zm-5.965-6.78a.45.45 0 0 1 .73-.512 107.436 107.436 0 0 1 3.063 3.345.452.452 0 0 1-.678.596 110.066 110.066 0 0 0-3.037-3.318.44.44 0 0 1-.078-.11zm52.969 110.116l-.017-.037a.45.45 0 0 1 .258-.583 54.3 54.3 0 0 0 4.104-1.793.45.45 0 0 1 .603.208.453.453 0 0 1-.209.604 54.417 54.417 0 0 1-4.17 1.822.452.452 0 0 1-.57-.221zm-59.52-116.334a.451.451 0 0 1 .698-.543 87.533 87.533 0 0 1 3.372 3.042.45.45 0 1 1-.623.654 84.902 84.902 0 0 0-3.336-3.01.46.46 0 0 1-.11-.143zm-7.203-5.44a.457.457 0 0 1 .027-.45.454.454 0 0 1 .627-.129 70.03 70.03 0 0 1 3.71 2.626.451.451 0 1 1-.546.72 68.435 68.435 0 0 0-3.662-2.591.454.454 0 0 1-.156-.176zm58.06 124.293a.452.452 0 0 1 .318-.643 50.549 50.549 0 0 0 4.348-1.06.447.447 0 0 1 .56.308.451.451 0 0 1-.308.56c-1.46.425-2.95.788-4.425 1.079a.452.452 0 0 1-.492-.244zM399.38 71.893a.451.451 0 0 1 .594-.61 59.928 59.928 0 0 1 4.05 2.07.452.452 0 0 1-.442.788 58.681 58.681 0 0 0-3.987-2.039.452.452 0 0 1-.215-.21zm-8.49-3.051a.453.453 0 0 1 .518-.636c1.465.377 2.93.829 4.355 1.34a.451.451 0 1 1-.306.85 48.043 48.043 0 0 0-4.273-1.315.45.45 0 0 1-.294-.239zm-8.905-1.428a.45.45 0 0 1 .434-.65c1.502.098 3.026.27 4.528.51a.451.451 0 1 1-.143.892 46.85 46.85 0 0 0-4.444-.5.448.448 0 0 1-.375-.252zm-9.01.322a.45.45 0 0 1 .342-.646 43.214 43.214 0 0 1 4.542-.396.452.452 0 0 1 .033.902 43.416 43.416 0 0 0-4.45.387.449.449 0 0 1-.468-.247zm-8.722 2.27c-.006-.01-.01-.024-.015-.034a.452.452 0 0 1 .254-.587 37.669 37.669 0 0 1 4.346-1.408.446.446 0 0 1 .55.324.45.45 0 0 1-.324.55 36.765 36.765 0 0 0-4.24 1.375.452.452 0 0 1-.57-.22zm-7.872 4.374a.452.452 0 0 1 .134-.56 33.23 33.23 0 0 1 3.84-2.488.45.45 0 0 1 .613.176c.14.197.044.494-.176.614a32.48 32.48 0 0 0-3.734 2.42.451.451 0 0 1-.677-.162zm-6.425 6.312a.456.456 0 0 1 .05-.481 38.077 38.077 0 0 1 3.049-3.402.452.452 0 0 1 .634.643 37.127 37.127 0 0 0-2.975 3.32.45.45 0 0 1-.758-.08zM345.11 88.3a.45.45 0 0 1 .002-.405 49.381 49.381 0 0 1 2.253-3.962.452.452 0 0 1 .764.483 48.362 48.362 0 0 0-2.213 3.889.451.451 0 0 1-.806-.005zm-3.422 8.35a.442.442 0 0 1-.026-.338 54.835 54.835 0 0 1 1.555-4.276.452.452 0 0 1 .589-.247c.229.094.34.36.246.589a54.639 54.639 0 0 0-1.529 4.209.453.453 0 0 1-.835.062zm-2.003 8.795a.45.45 0 0 1-.043-.263c.214-1.503.492-3.009.825-4.478a.452.452 0 1 1 .88.201 54.678 54.678 0 0 0-.811 4.404.45.45 0 0 1-.851.136zm-.566 9.005a.464.464 0 0 1-.046-.194 61.618 61.618 0 0 1 .109-4.547.451.451 0 1 1 .901.057 59.761 59.761 0 0 0-.106 4.478.452.452 0 0 1-.858.206zm.736 8.994a.43.43 0 0 1-.042-.134 70.738 70.738 0 0 1-.521-4.514.452.452 0 1 1 .899-.073c.12 1.456.294 2.955.514 4.455a.452.452 0 0 1-.85.266zm1.82 8.84a.502.502 0 0 1-.032-.086 87.833 87.833 0 0 1-1.036-4.417.453.453 0 0 1 .885-.185c.295 1.429.64 2.9 1.026 4.374a.453.453 0 0 1-.842.315zm2.682 8.621a.568.568 0 0 1-.02-.047c-.52-1.452-1.004-2.9-1.44-4.3a.453.453 0 0 1 .296-.566.454.454 0 0 1 .565.297c.432 1.39.913 2.824 1.429 4.264a.452.452 0 0 1-.83.352zm13.636 28.483a.452.452 0 0 1 .797-.425c.751 1.309 1.508 2.609 2.27 3.9a.46.46 0 0 1-.158.618.454.454 0 0 1-.62-.159 376.384 376.384 0 0 1-2.276-3.91l-.013-.024zm-10.291-20.092a.451.451 0 0 1 0 0zm5.92 12.186a.455.455 0 0 1 .194-.6.453.453 0 0 1 .61.19c.703 1.328 1.421 2.649 2.147 3.963.137.206.043.493-.175.614a.452.452 0 0 1-.614-.176 226.081 226.081 0 0 1-2.162-3.991zm-2.699-5.275c-.46-.933-.91-1.869-1.354-2.807a.452.452 0 0 1 .215-.602.444.444 0 0 1 .602.215c.64 1.355 1.296 2.706 1.973 4.052v.003a.452.452 0 0 1-.807.403c-.211-.42-.42-.841-.629-1.264z"/>
        <path fill="#B290B7" d="M362.355 177.805a.533.533 0 0 1 .175-.656c.217-.144.5-.068.632.17.397.723.795 1.443 1.194 2.158.125.244.064.548-.153.694-.218.145-.502.07-.633-.168-.399-.717-.798-1.437-1.196-2.16l-.019-.038"/>
        <path fill="#005587" d="M390.3 212.462l-17.68-29.048-10.312 6.87 27.991 22.178"/>
        <path fill="#7FD1EF" d="M390.3 212.462l-18.586-23.239-9.406.708 27.991 22.53"/>
        <path fill="#32B9D1" d="M389.771 212.462l-14.045-38.555-3.384 9.973 17.43 28.582"/>
        <path fill="#32B9D1" d="M390.3 212.462l-18.904-23.239-3.279 12.619 22.182 10.62"/>
        <path fill="#F7D4DC" d="M834.47 333.407a136.813 136.813 0 0 0 3.697-5.281l-3.697 5.281"/>
        <path fill="#7FD1EF" d="M823.312 337.7l15.033-9.746c6.23-8.983 10.965-17.995 14.144-25.368-6.541-1.669-20.082 5.24-20.082 5.24 13.399-8.182 18.221-9.167 22.618-11.828 3.842-11.235 2.398-23.61 2.497-34.2-13.922 13.297-17.998 15.636-17.998 15.636 8.804-7.132 13.358-14.805 17.953-20.173-.707-26.36-9.104-34.764-9.104-34.764-6.505 4.505-19.814 16.49-25.059 20.912-1.645 12.393-1.416 27.938-1.416 27.938-1.639-7.06-1.895-17.54-1.818-25.147-7.479 6.598-6.197 5.609-11.349 12.189-2.095 12.649-.39 34.438-.39 34.438-2.509-8.302-3.325-21.65-3.59-29.056-8.344 11.968-13.512 24.131-16.996 37.01 1.426 10.798 4.027 21.596 4.027 21.596-2.13-4.333-3.971-10.322-5.425-16.013-3.417 14.755-4.975 30.515-6.814 48.026l2.401 14.93 18.211-6.695c13.794-6.61 25.183-17.507 34.074-29.044l-10.917 4.118"/>
        <path fill="#00BFB3" d="M802.381 337.687c-2.55 4.762-5.216 9.47-8.124 14.024-2.9 4.553-6.09 8.952-9.79 12.857l-.171-.175c3.565-3.998 6.597-8.458 9.345-13.073 2.755-4.614 5.265-9.374 7.658-14.188 4.814-9.62 9.18-19.463 13.52-29.32 4.347-9.854 8.443-19.834 13.203-29.532 2.377-4.848 4.817-9.67 7.42-14.41 2.587-4.745 5.344-9.406 8.325-13.91l.21.123c-4.798 9.669-9.308 19.415-13.749 29.216-4.419 9.806-9.088 19.518-13.63 29.298-4.567 9.768-9.167 19.537-14.217 29.09"/>
        <path fill="#DDC7D8" d="M843.976 400.482a110.248 110.248 0 0 0 4.754-3.17l-4.754 3.17"/>
        <path fill="#7FD1EF" d="M832.94 400.353l16.19-4.03c7.661-6.156 13.907-12.818 18.355-18.489-5.906-3.61-20.125-1.68-20.125-1.68 14.33-3.132 19.111-2.482 23.809-3.487 5.825-8.966 6.837-20.658 8.973-30.24-15.814 7.61-20.146 8.426-20.146 8.426 9.757-3.652 15.57-9.156 20.978-12.556 4.414-24.148-1.96-34.466-1.96-34.466-7.062 2.004-22.04 8.617-27.886 10.95-3.954 10.72-6.736 24.902-6.736 24.902-.198-6.935 1.58-16.527 3.121-23.404-8.392 3.59-6.982 3.104-13.154 7.424-4.435 10.809-7.015 31.13-7.015 31.13-.786-8.34 1.012-20.715 2.188-27.52-10.252 8.189-17.516 17.571-23.315 28.142-.726 10.257-.334 20.892-.334 20.892-1.192-4.616-1.788-10.642-2.076-16.273-6.097 12.297-10.618 26.1-15.748 41.402l-.594 14.322 18.626-.244c14.403-1.579 27.348-7.82 38.036-15.443l-11.187.242"/>
        <path fill="#4080A5" d="M812.57 393.963c-3.36 3.506-6.823 6.924-10.485 10.128-3.656 3.205-7.556 6.177-11.85 8.538l-.13-.211c4.182-2.49 7.947-5.569 11.467-8.878 3.529-3.306 6.851-6.82 10.074-10.425 6.467-7.19 12.55-14.724 18.612-22.28 6.066-7.552 11.919-15.295 18.35-22.572 3.212-3.64 6.48-7.237 9.888-10.704 3.394-3.48 6.932-6.827 10.656-9.962l.175.179c-6.46 7.238-12.662 14.641-18.809 22.114-6.127 7.484-12.474 14.802-18.715 22.224-6.26 7.402-12.551 14.796-19.233 21.849"/>
        <path fill="#32B9D1" d="M832.01 437.711c16.723 5.025 23.435 8.285 29.363 8.53 10.273-8.664 18.248-19.009 24.4-29.499-21.555 4.078-34.157-2.14-34.157-2.14 13.749 3.442 29.03-.088 36.704-2.41 14.361-26.733 17.45-52.906 17.45-52.906-9.098.204-17.49.794-25.277 1.744-8.733 11.266-17.391 26.91-17.391 26.91 2.394-8.119 8.128-18.729 12.554-26.26-11.27 1.647-21.218 4.09-30.143 7.253-9.331 11.225-20.078 34.062-20.078 34.062 2.231-9.926 9.043-23.768 13.01-31.32-15.206 6.428-27.34 15.143-38.191 25.68-4.746 11.703-8.31 24.178-8.31 24.178.342-5.721 1.92-12.904 3.714-19.536-11.86 12.455-22.428 27.136-34.284 43.372l-6.126 16.462 22.083 5.325c34.026 4.838 59.18-2.857 77.734-16.017-5.604-5.976-23.056-13.428-23.056-13.428"/>
        <path fill="#005587" d="M760.001 459.876c5.88-1.65 11.492-4.115 16.908-6.918 5.42-2.798 10.68-5.903 15.853-9.139 10.37-6.45 20.416-13.413 30.444-20.41 10.034-6.988 19.89-14.266 30.249-20.826 5.176-3.283 10.402-6.498 15.741-9.52 5.328-3.04 10.778-5.884 16.363-8.426l.14.261c-10.38 6.507-20.514 13.282-30.616 20.155-10.077 6.893-20.353 13.527-30.542 20.31-10.204 6.76-20.445 13.498-31.012 19.721-5.3 3.082-10.686 6.032-16.226 8.67-5.533 2.644-11.266 4.94-17.23 6.408l-.072-.286"/>
        <path fill="#F7D4DC" d="M444.17 302.246a131.34 131.34 0 0 0-2.64-6.337l2.64 6.337"/>
        <path fill="#7FD1EF" d="M441.656 313.578l.006-18.24c-4.358-10.013-9.597-18.712-14.28-25.21-5.216 5-6.87 20.497-6.87 20.497.45-16.004 2.34-20.79 2.509-26.03-7.711-9.008-19.451-13.873-28.738-19.227 3.764 19.014 3.495 23.808 3.495 23.808-1.252-11.389-5.415-19.26-7.521-26.021-23.653-12.476-35.871-9.171-35.871-9.171.251 8.036 3.207 25.85 4.105 32.722 9.99 7.625 23.833 15.15 23.833 15.15-7.167-2.05-16.555-7.032-23.22-10.882 1.539 9.943 1.4 8.31 4.256 16.17 9.957 8.154 30.152 17.467 30.152 17.467-8.758-1.892-21-7.8-27.682-11.246 5.78 13.385 13.55 24.034 22.916 33.538 10.342 4.1 21.355 7.15 21.355 7.15-5.042-.257-11.377-1.593-17.23-3.126 11.06 10.378 24.07 19.598 38.46 29.943l14.545 5.282 4.513-19.553c2.064-15.574-1.032-31.14-6.12-44.797l-2.613 11.776"/>
        <path fill="#4080A5" d="M430.079 333.113c2.76 4.632 5.404 9.34 7.774 14.19 2.376 4.838 4.448 9.857 5.79 15.086l-.253.066c-1.502-5.153-3.719-10.067-6.235-14.8-2.511-4.742-5.29-9.34-8.186-13.86-5.77-9.058-11.99-17.832-18.241-26.588-6.243-8.761-12.74-17.362-18.608-26.414-2.936-4.521-5.812-9.087-8.521-13.756-2.724-4.657-5.275-9.423-7.56-14.311l.229-.125c5.82 9.07 11.877 17.921 18.018 26.74 6.16 8.802 12.091 17.779 18.156 26.678 6.042 8.912 12.063 17.857 17.637 27.094"/>
        <path fill="#32B9D1" d="M420.577 371.79c.173-19.303 1.553-27.434-.003-33.806-12.282-8.248-25.63-13.537-38.575-16.847 10.904 21.639 8.209 36.933 8.209 36.933-.584-15.659-8.987-30.806-13.787-38.242-32.581-7.037-61.118-2.275-61.118-2.275 3.001 9.601 6.195 18.334 9.582 26.31 14.553 5.812 33.696 10.2 33.696 10.2-9.292-.047-22.235-2.877-31.528-5.264 5.189 11.463 10.812 21.279 16.88 29.786 14.693 6.46 42.06 10.856 42.06 10.856-11.147.68-27.826-2.302-37.005-4.193 11.436 14.173 24.341 24.382 38.774 32.669 13.79 1.444 28.034 1.397 28.034 1.397-6.137 1.395-14.192 1.926-21.731 2.057 16.762 8.768 35.475 15.481 56.224 23.082l19.232 1.449-1.151-25.09c-5.325-37.623-21.144-61.971-40.702-77.632-4.582 7.787-7.09 28.61-7.09 28.61"/>
        <path fill="#005587" d="M465.014 441.149c-3.546-5.71-7.87-10.886-12.493-15.748-4.62-4.871-9.514-9.478-14.522-13.954-9.995-8.98-20.437-17.462-30.907-25.916-10.464-8.46-21.18-16.644-31.29-25.581-5.057-4.463-10.058-9-14.89-13.717-4.847-4.699-9.523-9.587-13.92-14.711l.232-.228c10.06 8.976 20.33 17.608 30.69 26.175 10.377 8.538 20.54 17.363 30.836 26.053 10.273 8.711 20.533 17.467 30.353 26.728 4.882 4.656 9.651 9.444 14.139 14.49 4.489 5.037 8.675 10.392 12.054 16.245l-.282.164"/>
        <path fill="#32B9D1" d="M598.87 105.424c.131-14.675 1.191-20.856-.004-25.7-9.421-6.269-19.662-10.29-29.591-12.807 8.364 16.45 6.297 28.077 6.297 28.077-.447-11.905-6.893-23.418-10.576-29.07-24.994-5.35-46.885-1.73-46.885-1.73 2.303 7.297 4.753 13.936 7.35 20 11.164 4.418 25.85 7.754 25.85 7.754-7.128-.037-17.057-2.187-24.186-4.001 3.98 8.713 8.294 16.173 12.949 22.641 11.271 4.91 32.264 8.253 32.264 8.253-8.55.516-21.345-1.75-28.386-3.189 8.773 10.776 18.672 18.536 29.745 24.836 10.577 1.097 21.504 1.06 21.504 1.06-4.708 1.062-10.887 1.465-16.67 1.564 12.858 6.666 27.213 11.77 43.13 17.547l14.754 1.1-.883-19.071c-4.086-28.599-16.22-47.11-31.224-59.014-3.514 5.92-5.438 21.75-5.438 21.75"/>
        <path fill="#005587" d="M633.031 158.59c-2.707-4.336-6.007-8.268-9.536-11.96-3.527-3.701-7.264-7.2-11.087-10.601-7.63-6.82-15.6-13.265-23.594-19.686-7.99-6.427-16.17-12.643-23.888-19.433-3.859-3.39-7.677-6.835-11.366-10.419-3.7-3.569-7.27-7.282-10.627-11.174l.177-.173c7.68 6.818 15.52 13.375 23.43 19.883 7.922 6.485 15.68 13.19 23.54 19.79 7.842 6.617 15.675 13.268 23.17 20.303 3.729 3.536 7.368 7.173 10.795 11.008 3.426 3.826 6.622 7.892 9.201 12.338l-.215.125M662.757 84.14c-12.469 14.868-19.86 36.878-21.972 65.437l-.166 21.108 10.764-.808 1.697-.855c10.783-5.434 20.993-10.58 30.004-17.05-4.83-.368-8.764-1.094-11.712-2.165l-3.11-1.127 3.305.13c.084.005 8.437.318 16.435-.61 8.815-7.221 15.705-15.572 21.604-26.197-5.56 1.427-14.692 3.351-20.986 2.579l-3.164-.39 3.126-.625c.16-.032 16.052-3.252 24.524-8.389 3.39-7.158 6.36-15.11 9.07-24.28-5.416 1.8-12.591 3.781-17.91 3.62l-3.189-.088 3.056-.919c.11-.034 11.187-3.395 19.564-7.99 1.807-6.692 3.49-14.042 5.008-21.86-2.833-.682-18.311-3.976-35.373.758-2.756 6.507-7.262 19.163-7.288 32.402l-1.022.072c-.019-.13-1.8-13.15 3.835-31.06a59.842 59.842 0 0 0-21.336 13.216c-.466 3.39-.257 7.45.086 14.104.2 3.908.45 8.77.634 14.906l-1.024.07c-.018-.172-1.806-16.786-4.46-23.99zm-23.173 87.655l.176-22.26c2.16-29.238 9.822-51.673 22.77-66.718l.54-.626.324.763c1.394 3.305 2.555 9.108 3.391 14.3-.07-1.454-.139-2.8-.204-4.048-.351-6.832-.563-10.953-.052-14.48l.026-.173.126-.123a60.915 60.915 0 0 1 22.815-13.91l.974-.33-.32.977c-2.618 8.01-3.73 15.067-4.153 20.467 1.523-9.169 4.492-17.171 6.487-21.847l.098-.226.236-.067c19.173-5.398 36.448-.757 36.62-.71l.459.126-.09.467c-1.562 8.104-3.304 15.716-5.176 22.624l-.058.21-.189.106c-5.501 3.044-12.196 5.56-16.264 6.965 4.844-.577 10.42-2.225 14.66-3.674l.935-.32-.277.95c-2.815 9.685-5.913 18.033-9.471 25.521l-.065.139-.13.08c-6.12 3.757-15.855 6.455-21.196 7.746 6.162-.136 13.579-1.858 17.923-3.018l1.151-.307-.568 1.05c-6.117 11.295-13.282 20.08-22.547 27.644l-.117.094-.147.017c-4.706.556-9.545.681-12.805.688 2.564.554 5.606.94 9.095 1.149l1.414.085-1.141.842c-9.356 6.917-20.012 12.287-31.293 17.973l-1.98.955-11.977.899z"/>
        <path fill="#005587" d="M647.95 161.76l-.444-.383.127-.336c1.692-4.468 3.947-9.018 6.895-13.912 2.312-3.847 4.906-7.757 8.158-12.301 5.546-7.656 11.24-14.75 17.574-22.565 2.074-2.546 4.139-5.107 6.203-7.666 3.802-4.717 7.733-9.593 11.66-14.282 5.272-6.333 11.507-13.905 17.75-22.037l.82.626c-6.256 8.144-12.497 15.726-17.779 22.068-3.919 4.683-7.847 9.556-11.647 14.268a1993.746 1993.746 0 0 1-6.206 7.67c-6.323 7.804-12.007 14.885-17.536 22.517-3.236 4.52-5.813 8.406-8.112 12.232-2.916 4.84-5.146 9.336-6.815 13.746l-.256-.096-.393.45M396.452 180.64c11.613 9.94 28.843 15.93 51.229 17.81l16.516.284-.55-8.431-.653-1.34c-4.157-8.515-8.095-16.585-13.046-23.733-.332 3.713-.927 6.747-1.77 9.033l-1.156 3.124.16-3.33c.004-.067.31-6.679-.358-13.033-5.567-6.981-12.02-12.473-20.229-17.201 1.08 4.46 2.471 11.577 1.824 16.51l-.418 3.186-.596-3.157c-.025-.127-2.438-12.742-6.407-19.51-5.552-2.714-11.724-5.11-18.835-7.311 1.366 4.306 2.817 9.945 2.666 14.114l-.115 3.214-.892-3.088c-.026-.09-2.582-8.88-6.128-15.563-5.214-1.472-10.944-2.853-17.045-4.109-.604 2.483-3.178 14.57.353 27.943 5.117 2.24 15.02 5.888 25.404 6.005l.063 1.03c-.104.017-10.304 1.327-24.301-3.215a47.565 47.565 0 0 0 10.144 16.798c2.65.388 5.84.251 11.055.029 3.084-.13 6.924-.295 11.769-.396l.059 1.033c-.134.013-12.972 1.287-18.743 3.304zm68.844 19.146l-17.667-.304c-23.066-1.934-40.72-8.202-52.506-18.63l-.622-.55.765-.316c2.24-.932 5.916-1.712 9.5-2.31l-1.356.057c-5.39.231-8.645.368-11.43-.066l-.172-.027-.121-.128c-4.934-5.26-8.577-11.415-10.827-18.296l-.322-.984.975.333c5.128 1.743 9.762 2.687 13.6 3.181-6.189-1.345-11.494-3.408-14.75-4.846l-.225-.098-.064-.239c-4.125-15.322-.332-29.063-.294-29.2l.13-.46.466.094c6.387 1.304 12.376 2.746 17.807 4.285l.21.06.102.192c2.132 3.969 3.915 8.705 5.037 11.982-.512-3.581-1.643-7.527-2.65-10.595l-.31-.947.945.288c7.623 2.313 14.188 4.841 20.07 7.727l.137.067.078.132c2.701 4.53 4.665 11.507 5.722 15.907-.216-4.658-1.397-9.975-2.214-13.186l-.297-1.163 1.044.583c8.873 4.954 15.756 10.726 21.664 18.166l.093.119.017.15c.35 3.265.446 6.61.452 9.133.342-1.797.594-3.857.752-6.164l.098-1.426.831 1.158c5.392 7.5 9.549 16.021 13.953 25.043l.75 1.623.629 9.655z"/>
        <path fill="#005587" d="M462.299 197.674l-.337-.13c-3.548-1.372-7.155-3.188-11.023-5.55-3.04-1.85-6.13-3.924-9.723-6.528-6.074-4.45-11.658-8.986-17.809-14.027-2.008-1.654-4.027-3.3-6.046-4.947-3.721-3.034-7.57-6.17-11.267-9.3-4.995-4.207-10.968-9.18-17.379-14.16l.637-.814c6.425 4.992 12.407 9.973 17.41 14.186 3.694 3.125 7.536 6.26 11.255 9.29 2.02 1.647 4.04 3.295 6.05 4.95 6.138 5.032 11.711 9.557 17.76 13.99 3.568 2.586 6.636 4.645 9.653 6.482 3.815 2.33 7.367 4.119 10.857 5.467l-.118.304.436.383-.356.404"/>
        <path fill="#32B9D1" d="M944.529 182.268a.451.451 0 1 1-.021-.903 57.92 57.92 0 0 1 4.548-.035.453.453 0 0 1-.015.905h-.015a56.712 56.712 0 0 0-4.478.032l-.02.001zm-8.972.98a.451.451 0 0 1-.073-.897 88.528 88.528 0 0 1 4.496-.616.453.453 0 0 1 .1.899c-1.534.17-3.03.374-4.45.607a.39.39 0 0 1-.073.006zm22.419.178a.456.456 0 0 1-.113-.014 36.615 36.615 0 0 0-4.381-.823.453.453 0 0 1 .115-.898c1.576.203 3.088.487 4.49.845a.451.451 0 0 1-.111.89zm-31.21 1.854a.452.452 0 0 1-.133-.883 59.314 59.314 0 0 1 4.393-1.177.452.452 0 0 1 .201.88 59.45 59.45 0 0 0-4.327 1.16.475.475 0 0 1-.134.02zm39.349 1.904a.455.455 0 0 1-.28-.097c-1.076-.85-2.345-1.604-3.774-2.243a.452.452 0 0 1 .366-.826c1.498.67 2.833 1.463 3.967 2.36a.453.453 0 0 1-.279.806zm-47.671 1.564a.452.452 0 0 1-.216-.849l.477-.257a42.37 42.37 0 0 1 3.643-1.706.452.452 0 1 1 .344.836 41.628 41.628 0 0 0-3.566 1.67l-.465.25a.444.444 0 0 1-.217.056zm-7.233 5.361a.452.452 0 0 1-.32-.772 30.23 30.23 0 0 1 3.478-2.981.451.451 0 1 1 .534.728 29.395 29.395 0 0 0-3.373 2.892.448.448 0 0 1-.319.133zm59.493.607a.45.45 0 0 1-.445-.38 10.787 10.787 0 0 0-1.401-3.851l-.112-.185a.452.452 0 0 1 .766-.478l.12.198a11.632 11.632 0 0 1 1.517 4.174.451.451 0 0 1-.445.522zm-64.485 6.848a.45.45 0 0 1-.42-.613 19.868 19.868 0 0 1 2.152-4.081.454.454 0 0 1 .63-.118c.204.14.257.422.117.628a18.962 18.962 0 0 0-2.057 3.894.454.454 0 0 1-.422.29zm63.043 1.959a.452.452 0 0 1-.416-.629c.623-1.47 1.063-2.888 1.31-4.214a.45.45 0 1 1 .887.163c-.259 1.393-.718 2.873-1.367 4.404a.447.447 0 0 1-.414.276zm-63.661 6.91a.448.448 0 0 1-.435-.333 13.394 13.394 0 0 1-.453-3.492 14.15 14.15 0 0 1 .045-1.142c.02-.25.254-.425.485-.416.248.02.434.238.415.487-.029.356-.043.712-.042 1.07 0 1.122.142 2.218.42 3.257a.451.451 0 0 1-.435.57zm59.145.902a.451.451 0 0 1-.368-.712 56.231 56.231 0 0 0 2.44-3.76.455.455 0 0 1 .619-.161.454.454 0 0 1 .16.619 57.64 57.64 0 0 1-2.481 3.82.453.453 0 0 1-.37.194zm-53.944 6.256a.446.446 0 0 1-.261-.084c-1.333-.954-2.456-2.035-3.34-3.215a.452.452 0 0 1 .722-.542c.828 1.107 1.885 2.123 3.142 3.02a.453.453 0 0 1-.263.82zm102.256.92a.45.45 0 0 1-.439-.349.45.45 0 0 1 .336-.542l1.057-.25a.445.445 0 0 1 .543.334.45.45 0 0 1-.335.544l-1.06.25a.39.39 0 0 1-.102.014zm-53.693.08a.451.451 0 0 1-.357-.728 263.054 263.054 0 0 0 2.72-3.597.453.453 0 0 1 .725.54 260.506 260.506 0 0 1-2.732 3.61.446.446 0 0 1-.356.175zm44.862 1.812a.451.451 0 0 1-.084-.897c1.474-.285 2.946-.586 4.414-.9a.458.458 0 0 1 .535.347.453.453 0 0 1-.346.537c-1.473.315-2.95.617-4.433.904a.418.418 0 0 1-.086.009zm-85.236.892a.441.441 0 0 1-.123-.018 34.055 34.055 0 0 1-4.31-1.528.452.452 0 0 1 .362-.828 33.37 33.37 0 0 0 4.195 1.487.452.452 0 0 1-.124.887zm76.343.663a.452.452 0 0 1-.07-.9c1.487-.23 2.97-.474 4.449-.732.239-.05.479.12.521.367a.452.452 0 0 1-.366.523c-1.485.26-2.973.504-4.464.736a.462.462 0 0 1-.07.006zm-67.488 1.09a.51.51 0 0 1-.06-.003 78.364 78.364 0 0 1-4.486-.72.453.453 0 0 1 .171-.889c1.37.265 2.82.499 4.434.712a.452.452 0 0 1-.06.9zm58.543.132a.453.453 0 0 1-.052-.901 233.96 233.96 0 0 0 4.47-.568.452.452 0 0 1 .122.895c-1.493.205-2.988.395-4.487.572l-.053.002zm-49.564.81l-.04-.002a238.313 238.313 0 0 1-4.503-.425.452.452 0 0 1 .093-.9c1.495.155 2.99.296 4.486.424a.451.451 0 1 1-.037.903zm40.58.08a.45.45 0 0 1-.449-.417.448.448 0 0 1 .413-.486c1.498-.12 2.992-.256 4.487-.404.264-.02.47.155.494.404a.451.451 0 0 1-.405.495 228.839 228.839 0 0 1-4.54.407zm-31.574.516h-.02a249.082 249.082 0 0 1-4.517-.257.451.451 0 0 1-.42-.482c.017-.249.235-.449.48-.42 1.498.099 2.996.185 4.498.256a.45.45 0 1 1-.021.902zm22.562.043a.453.453 0 0 1-.017-.904c1.499-.065 3-.146 4.498-.238a.436.436 0 0 1 .48.422.451.451 0 0 1-.423.479c-1.505.094-3.01.174-4.518.24l-.02.001zm-9.023.231a.452.452 0 0 1-.004-.904c1.502-.011 3.004-.036 4.505-.074a.439.439 0 0 1 .463.44.451.451 0 0 1-.44.464c-1.507.039-3.013.064-4.52.074h-.004zm-5.646.792a.451.451 0 0 1-.348-.741l.067-.08a248.247 248.247 0 0 1-3.114-.071.45.45 0 0 1-.438-.466.442.442 0 0 1 .466-.438c1.273.038 2.546.064 3.82.083.688-.84 1.37-1.681 2.045-2.528a.45.45 0 1 1 .705.565 261.82 261.82 0 0 1-1.724 2.136.452.452 0 0 1-.348.74c-.082.007-.17-.002-.256-.004-.175.215-.351.428-.527.64a.45.45 0 0 1-.348.164zm-5.881 6.86a.45.45 0 0 1-.34-.752c1-1.127 1.99-2.26 2.967-3.4a.453.453 0 0 1 .685.59c-.98 1.143-1.973 2.281-2.975 3.41a.45.45 0 0 1-.337.152zm-6.11 6.656a.453.453 0 0 1-.33-.763 277.44 277.44 0 0 0 3.08-3.296.45.45 0 1 1 .664.61 253.57 253.57 0 0 1-3.088 3.309.45.45 0 0 1-.327.14zm-6.33 6.45a.453.453 0 0 1-.317-.774 289.665 289.665 0 0 0 3.188-3.194.451.451 0 1 1 .643.633 291.496 291.496 0 0 1-3.197 3.204.443.443 0 0 1-.317.13zm-6.535 6.239a.452.452 0 0 1-.306-.784 281.204 281.204 0 0 0 3.287-3.089.451.451 0 1 1 .624.655 305.052 305.052 0 0 1-3.3 3.098.451.451 0 0 1-.305.12zm-6.732 6.025a.452.452 0 0 1-.296-.793c1.14-.986 2.268-1.98 3.387-2.981a.45.45 0 1 1 .6.673 285.02 285.02 0 0 1-3.395 2.991.452.452 0 0 1-.296.11z"/>
        <path fill="#005587" d="M1051.537 205.068l-33.273 3.805 1.772 12.567 31.501-16.372"/>
        <path fill="#7FD1EF" d="M1052.066 205.068l-28.331 7.33-3.358 9.042 31.689-16.372"/>
        <path fill="#32B9D1" d="M1052.066 205.06l-41.196-3.69 7.634 7.395 33.562-3.706M1052.066 205.068l-28.52 7.386 9.812 8.458 18.708-15.844M746.909 92.304c-6.888 0-9.611 2.802-9.611 8.832 0 .554-1.071.554-1.071 0 0-6.03-2.178-8.832-9.61-8.832-.556 0-.556-1.057 0-1.057 7.66 0 9.61-3.492 9.61-8.821 0-.555 1.07-.555 1.07 0 0 6.347 2.608 8.821 9.612 8.821.556 0 .556 1.057 0 1.057M502.986 45.087c-14.292 0-19.942 5.907-19.942 18.618 0 1.168-2.222 1.168-2.222 0 0-12.711-4.522-18.618-19.943-18.618-1.153 0-1.152-2.227.001-2.227 15.897 0 19.942-7.364 19.942-18.598 0-1.169 2.222-1.169 2.222 0 0 13.38 5.41 18.598 19.942 18.598 1.153 0 1.153 2.227 0 2.227M511.822 500.395c-7.921 0-11.053 3.333-11.053 10.503 0 .659-1.231.659-1.231 0 0-7.17-2.506-10.503-11.053-10.503-.638 0-.638-1.256 0-1.256 8.81 0 11.053-4.154 11.053-10.491 0-.66 1.23-.66 1.23 0 0 7.547 3 10.49 11.054 10.49.639 0 .639 1.257 0 1.257M949.654 323.994c-7.92 0-11.052 3.333-11.052 10.503 0 .66-1.232.66-1.232 0 0-7.17-2.504-10.503-11.052-10.503-.639 0-.639-1.256 0-1.256 8.81 0 11.052-4.154 11.052-10.49 0-.66 1.232-.66 1.232 0 0 7.547 2.998 10.49 11.052 10.49.64 0 .64 1.256 0 1.256M952.056 125.194c-11.883 0-16.58 5-16.58 15.754 0 .99-1.847.99-1.847 0 0-10.755-3.76-15.754-16.579-15.754-.957 0-.957-1.884.002-1.884 13.215 0 16.577-6.231 16.577-15.736 0-.988 1.847-.988 1.847 0 0 11.321 4.5 15.736 16.579 15.736.959 0 .959 1.884.001 1.884"/>
        <path fill="#FFFFFE" d="M792.218 155.225v285.214c0 19.932-16.147 36.095-36.068 36.095H487.643c-19.922 0-36.079-16.163-36.079-36.095V155.225c.205-19.758 16.28-35.717 36.079-35.717H756.15c19.8 0 35.863 15.96 36.068 35.717"/>
        <path fill="#32B9D1" d="M792.218 155.95H451.564c.205-19.866 16.28-35.914 36.079-35.914H756.15c19.8 0 35.863 16.048 36.068 35.914"/>
        <path fill="#FFFFFE" d="M494.872 137.73a6.601 6.601 0 1 0-13.203 0 6.601 6.601 0 1 0 13.203 0M515.47 137.73a6.602 6.602 0 1 0-13.204 0 6.602 6.602 0 0 0 13.204 0M535.54 137.73a6.602 6.602 0 1 0-13.205 0 6.602 6.602 0 0 0 13.204 0M686.341 144.331H562.194c-3.637 0-6.585-2.955-6.585-6.602 0-3.646 2.948-6.602 6.585-6.602h124.147c3.638 0 6.586 2.956 6.586 6.602 0 3.647-2.948 6.602-6.586 6.602"/>
        <path fill="#FEC488" d="M864.355 483.4l3.916 5.533s.085 7.776-5.654 8.175c-5.737.398-18.462-4.186-18.105-7.981.357-3.796 1.526-5.727 1.526-5.727h18.317M823.379 483.46v5.953s-2.942 9.005-7.403 8.77c-4.463-.233-12.572-5.913-12.12-11.142.45-5.228-.019-6.281-.019-6.281l19.542 2.7"/>
        <path fill="#830065" d="M864.378 239.397s12.445 51.527 10.566 82.446c-1.881 30.919-9.49 54.808-8.842 70.267.65 15.46-1.756 91.463-1.756 91.463s-10.798 7.134-18.26 0c0 0-1.238-79.052-1.837-93.42-.586-14.049-9.069-71.878-9.069-71.878s-4.54 55.892-6.862 68.974c-2.32 13.08-5.191 99.493-5.191 99.493s-15.353 7.929-19.156 0c0 0-1.937-88.792 0-99.493 1.937-10.704-13.164-77.914-9.63-105.55 3.531-27.64 6.875-38.443 6.875-38.443l63.162-3.859"/>
        <path fill="#000" d="M864.378 239.397s12.445 51.527 10.566 82.446c-1.881 30.919-9.49 54.808-8.842 70.267.65 15.46-1.756 91.463-1.756 91.463s-10.798 7.134-18.26 0c0 0-1.238-79.052-1.837-93.42-.586-14.049-9.069-71.878-9.069-71.878s-4.54 55.892-6.862 68.974c-2.32 13.08-5.191 99.493-5.191 99.493s-15.353 7.929-19.156 0c0 0-1.937-88.792 0-99.493 1.937-10.704-13.164-77.914-9.63-105.55 3.531-27.64 6.875-38.443 6.875-38.443l63.162-3.859" opacity=".65"/>
        <path fill="#830065" d="M846.261 483.4s-8.706 12.248 0 17.043c8.705 4.795 27.468 13.88 32.653 12.365 5.184-1.514-4.205-19.737-10.37-23.974 0 0-6.171 7.066-13.085 5.047-6.912-2.018-10.497-4.055-9.198-10.48M823.134 486.57s5.087 10.542 3.703 15.662c-1.383 5.12-9.688 14.656-12.455 13.244-2.769-1.414-11.417-10.065-12.802-15.891-1.384-5.828 1.367-10.49 2.068-13.016 0 0 3.527 8.6 10.488 8.6 4.402 0 8.786-2.529 8.998-8.6"/>
        <path fill="#2B3A42" d="M825.461 68.818c8.5-8.492 23.903-11.284 36.035 17.156 7.383 17.305 15.386 10.527 20.905 20.28 3.863 6.826.463 15.738 2.836 23.069 3.536 10.93 17.892 10.078 17.892 30.14 0 24.63-115.215 35.996-141.297 8.464-10.534-11.117 2.835-19.439 7.675-27.008 4.05-6.333-3.303-12.3-3.303-22.447 0-10.146 17.643-19.402 19.863-25.067 3.068-7.83-.038-23.856 17.737-28.933 10.666-3.048 21.657 4.346 21.657 4.346"/>
        <path fill="#FEC488" d="M825.174 85.179c10.176 0 23.885 9.562 23.045 28.034-.72 15.812-7.297 20.42-11.523 22.37l2.13 10.611 15.737 7.887 4.73 10.133-26.636 22.369-27.235-19.088 2.9-13.965 9.67-9 .298-8.65s-11.073-7.773-11.073-21.473c0-15.807 7.482-29.228 17.957-29.228"/>
        <path fill="#272826" d="M821.502 127.43a.788.788 0 0 1-.576-.24.669.669 0 0 1 .073-.995c4.942-3.999 10.486-3.984 14.831.031a.667.667 0 0 1 0 .997.809.809 0 0 1-1.08 0c-5.352-4.95-10.696-1.626-12.747.033a.8.8 0 0 1-.501.174M837.639 107.36c0 2.042-.828 3.698-1.848 3.698-1.022 0-1.85-1.656-1.85-3.698 0-2.041.828-3.696 1.85-3.696 1.02 0 1.848 1.655 1.848 3.696M821.794 107.36c0 2.042-.828 3.698-1.848 3.698-1.021 0-1.849-1.656-1.849-3.698 0-2.041.828-3.696 1.85-3.696 1.02 0 1.847 1.655 1.847 3.696"/>
        <path fill="#2B3A42" d="M825.147 85.357s2.412 12.877 25.634 13.22l1.646-15.727-26.342-7.178-29.642 8.395 2.418 13.347s23.54 7.76 26.286-12.057"/>
        <path fill="#FEC488" d="M903.657 191.08s7.485-.271 9.148-3.441c0 0 3.875 2.465-1.202 5.4-5.075 2.935-7.946-1.96-7.946-1.96"/>
        <path fill="#FEC488" d="M895.206 201.194s2.32-8.841 7.804-9.79c8.934-1.542 14.38 3.63 17.401 3.63 10.056 0 12.423-2.416 13.804-4.754 0 0 4.099 1.971-.591 5.63-2.655 2.071-6.317 3.555-17.163 3.825-3.766.094-10.595 4.973-12.79 7.973l-8.465-6.514"/>
        <path fill="#A2408C" d="M890.981 202.452l1.98-4.778 17.033 11.037-7.634 6.92-11.379-13.18"/>
        <path fill="#FEC488" d="M756.304 188.967s-7.486-.27-9.148-3.44c0 0-3.874 2.465 1.2 5.4 5.077 2.935 7.948-1.96 7.948-1.96"/>
        <path fill="#FEC488" d="M767.923 199.073s-2.32-8.854-7.807-9.804c-8.936-1.544-16.13 2.016-19.102 2.572-6.967 1.303-10.977-2.388-12.36-4.73 0 0-5.342 2.584 1.766 7.722 3.279 2.37 5.388 2.508 16.239 2.779 3.768.093 10.6 4.98 12.796 7.984l8.468-6.523"/>
        <path fill="#A2408C" d="M772.677 197.253l-3.45-2.748-14.507 11.592 6.182 4.78 11.775-13.624"/>
        <path fill="#830065" d="M830.509 172.552s13.879-11.469 12.963-16.93c-.917-5.46-4.089-9.094-4.089-9.094l22.831 11.88s10.385 61.584 1.223 80.698l-4.887 8.495s-22.806 12.438-52.787 0l-7.075-13.35-4.886-62.799s2.404-12.192 3.74-13.102c1.335-.91 20.872-13.49 20.872-13.49s-2.317 7.175-.179 13.547c2.139 6.37 12.274 14.145 12.274 14.145"/>
        <path fill="#A2408C" d="M810.315 198.73s10.736 8.599 17.289 6.487c0 0-7.325 4.186-15.866.334-8.541-3.853-1.423-6.821-1.423-6.821M815.098 207.708l2.155 12.715 1.695 20.586 1.262 11.064s-8.293-.77-9.799-2.459c-1.507-1.687 4.687-41.906 4.687-41.906M847.496 207.18l-.35 9.84v13.615l5.803 19.325s3.232-.343 4.64-2.127c1.407-1.784-10.093-40.653-10.093-40.653"/>
        <path fill="#A2408C" d="M853.343 198.73s-10.737 8.599-17.289 6.487c0 0 7.324 4.186 15.865.334 8.542-3.853 1.424-6.821 1.424-6.821"/>
        <path fill="#000" d="M890.97 273.733c-1.37 0-17.99 6.438-24.505 5.752 0 0-16.21-45.321-17.238-53.896-1.03-8.575-8.393-73.573-10.532-79.145 0 0 34.997 12.262 38.646 18.093 3.647 5.83 6.514 42.873 6.514 42.873l6.857-8.245 16.114 17.163s-26.743 18.18-31.2 17.15c-4.458-1.03-6.482-2.383-6.482-2.383l21.826 42.638M818.097 144.86s-1.452 126.762-10.09 136.789l-29.368-9.335 8.983-11.066 6.024-25.586s-3.26 2.075-6.715 1.037c-3.454-1.037-27.986-25.587-27.986-25.587l13.13-15.215 7.937 5.902s3.054-25.972 6.146-36.548c8.807-7.538 19.37-13.805 31.94-20.392"/>
        <path fill="#2B3A42" d="M860.349 180.773s4.81 48.918 9.016 50.4c.893 1.951 2.075 3.999 2.075 3.999l-5.933-4.027-4.463-17.593-.695-32.779M797.026 180.773s2.891 48.918-1.204 50.4c-.87 1.951-2.02 3.999-2.02 3.999l5.778-4.027.56-14.047-3.114-36.325"/>
        <path fill="#32B9D1" d="M543.538 265.58a1079.078 1079.078 0 0 0-12.923 17.258c-4.568 6.218-8.407 12.592-11.521 19.122h24.444v-36.38zm22.731-28.295v64.675h11.522v18.967h-11.522v24.1h-22.731v-24.1h-46.553V303.98c2.283-4.559 5.138-9.715 8.564-15.468 3.424-5.753 7.239-11.66 11.443-17.724a311.739 311.739 0 0 1 13.312-17.801c4.671-5.803 9.341-11.04 14.012-15.702h21.953zM641.333 290.286c0-5.393-.26-10.294-.776-14.704-.52-4.408-1.347-8.219-2.485-11.437-1.139-3.214-2.692-5.704-4.658-7.468-1.968-1.763-4.401-2.645-7.298-2.645-2.9 0-5.306.882-7.22 2.645-1.917 1.764-3.47 4.254-4.658 7.468-1.192 3.218-2.046 7.029-2.562 11.437-.52 4.41-.778 9.311-.778 14.704 0 5.395.258 10.322.778 14.782.516 4.46 1.37 8.299 2.562 11.513 1.188 3.217 2.741 5.707 4.658 7.47 1.914 1.763 4.32 2.644 7.22 2.644 2.897 0 5.33-.88 7.298-2.645 1.966-1.762 3.52-4.252 4.658-7.469 1.138-3.214 1.965-7.053 2.485-11.513.516-4.46.776-9.387.776-14.782zm23.602 0c0 18.154-3.442 32.08-10.326 41.776-6.886 9.702-16.382 14.549-28.493 14.549-12.111 0-21.61-4.847-28.494-14.55-6.885-9.695-10.324-23.621-10.324-41.775 0-9.025.903-17.012 2.717-23.961 1.809-6.95 4.426-12.811 7.84-17.583 3.417-4.77 7.505-8.403 12.267-10.892 4.76-2.49 10.093-3.734 15.994-3.734 12.11 0 21.607 4.85 28.493 14.549 6.884 9.7 10.326 23.571 10.326 41.62zM719.939 265.58a1071.99 1071.99 0 0 0-12.924 17.258c-4.568 6.218-8.407 12.592-11.52 19.122h24.444v-36.38zm22.732-28.295v64.675h11.52v18.967h-11.52v24.1h-22.732v-24.1h-46.554V303.98c2.283-4.559 5.138-9.715 8.564-15.468s7.24-11.66 11.443-17.724a313.425 313.425 0 0 1 13.312-17.801c4.672-5.803 9.342-11.04 14.013-15.702h21.954zM509.047 385.355c0-1.903-.423-3.384-1.269-4.442-.846-1.057-2.206-1.587-4.084-1.587-.395 0-.806.017-1.234.054-.43.034-.851.11-1.269.229v10.541c.37.26.864.5 1.478.722a5.667 5.667 0 0 0 1.963.336c1.53 0 2.648-.528 3.355-1.587.706-1.058 1.06-2.48 1.06-4.266zm4.31-.07c0 1.41-.18 2.703-.54 3.879-.358 1.174-.874 2.186-1.545 3.032a6.893 6.893 0 0 1-2.52 1.973c-1.009.47-2.15.706-3.424.706a8.349 8.349 0 0 1-2.365-.317c-.718-.212-1.309-.447-1.772-.706v7.158h-4.206v-24.365a33.817 33.817 0 0 1 3.163-.668 23.774 23.774 0 0 1 3.963-.318c1.436 0 2.722.224 3.858.67a8.051 8.051 0 0 1 2.902 1.922c.8.834 1.414 1.845 1.843 3.031.429 1.188.643 2.522.643 4.002zM524.53 391.77c1.35 0 2.377-.07 3.077-.213v-4.787a8.44 8.44 0 0 0-1.05-.215 9.868 9.868 0 0 0-1.521-.109c-.483 0-.972.038-1.466.11a4.58 4.58 0 0 0-1.34.392c-.4.19-.719.459-.96.804-.242.344-.362.78-.362 1.303 0 1.025.326 1.733.977 2.127.652.393 1.534.589 2.645.589zm-.363-16.111c1.447 0 2.667.178 3.657.536.99.357 1.78.857 2.372 1.5.59.643 1.014 1.423 1.268 2.34.252.918.378 1.923.378 3.018v11.326c-.674.143-1.695.316-3.058.518-1.364.202-2.904.303-4.617.303-1.135 0-2.173-.107-3.114-.32-.942-.215-1.744-.56-2.408-1.038a4.876 4.876 0 0 1-1.557-1.857c-.375-.761-.562-1.702-.562-2.822 0-1.073.211-1.977.635-2.717a5.146 5.146 0 0 1 1.72-1.801c.723-.466 1.562-.798 2.516-1.001a14.42 14.42 0 0 1 2.987-.305c.483 0 .989.03 1.522.09.529.06 1.097.16 1.701.303v-.713c0-.5-.06-.977-.18-1.43a2.966 2.966 0 0 0-.635-1.197c-.303-.345-.7-.612-1.195-.804-.495-.19-1.116-.285-1.865-.285-1.013 0-1.944.07-2.787.213-.846.143-1.534.31-2.065.5l-.543-3.501c.554-.19 1.364-.381 2.426-.57a19.288 19.288 0 0 1 3.404-.286zM539.943 384.943c0 1.84.396 3.184 1.19 4.032.793.848 1.818 1.273 3.072 1.273.686 0 1.332-.096 1.936-.287.604-.19 1.095-.418 1.474-.681v-9.714c-.308-.07-.688-.138-1.138-.197a13.25 13.25 0 0 0-1.703-.09c-1.564 0-2.759.522-3.587 1.56-.828 1.039-1.244 2.408-1.244 4.104zm11.969 7.958c0 2.986-.752 5.172-2.256 6.559-1.503 1.385-3.806 2.078-6.906 2.078-1.137 0-2.244-.095-3.321-.286a18.254 18.254 0 0 1-2.93-.753l.78-3.692c.735.311 1.57.562 2.505.753.935.19 1.947.286 3.036.286 1.728 0 2.96-.358 3.694-1.075.733-.717 1.101-1.78 1.101-3.19v-.716c-.426.215-.99.43-1.686.645-.7.215-1.499.322-2.399.322-1.184 0-2.267-.191-3.249-.573a6.813 6.813 0 0 1-2.522-1.685c-.699-.74-1.242-1.666-1.633-2.777-.39-1.112-.587-2.396-.587-3.854 0-1.362.209-2.616.622-3.763.414-1.147 1.018-2.128 1.811-2.94.794-.812 1.76-1.445 2.896-1.899 1.135-.454 2.426-.682 3.87-.682 1.397 0 2.722.108 3.977.323 1.256.215 2.32.443 3.197.68V392.9zM568.841 383.596c0-.593-.081-1.157-.243-1.692a4.141 4.141 0 0 0-.71-1.387 3.35 3.35 0 0 0-1.146-.924c-.45-.227-.988-.34-1.612-.34-.648 0-1.214.125-1.7.374a3.87 3.87 0 0 0-1.233.98 4.512 4.512 0 0 0-.78 1.387 7.734 7.734 0 0 0-.38 1.602h7.804zm-12.176 1.922c0-1.637.237-3.073.713-4.307.473-1.233 1.103-2.26 1.89-3.08a7.79 7.79 0 0 1 2.705-1.85 8.19 8.19 0 0 1 3.121-.622c2.499 0 4.447.795 5.845 2.384 1.4 1.59 2.099 3.964 2.099 7.118 0 .239-.006.505-.017.802-.012.297-.03.564-.052.8h-11.967c.114 1.496.63 2.653 1.543 3.47.914.82 2.238 1.229 3.972 1.229 1.017 0 1.947-.095 2.791-.285.844-.19 1.51-.392 1.995-.605l.556 3.523c-.233.12-.55.245-.954.374-.405.131-.868.25-1.387.356-.521.108-1.083.196-1.682.268-.603.07-1.215.107-1.84.107-1.594 0-2.982-.246-4.161-.731-1.18-.486-2.152-1.162-2.915-2.028-.762-.867-1.33-1.886-1.7-3.06-.369-1.177-.555-2.463-.555-3.863zM585.713 376.655c.846-.235 1.944-.462 3.3-.675 1.353-.214 2.851-.321 4.495-.321 1.546 0 2.84.208 3.88.624 1.04.415 1.867.996 2.483 1.744.617.748 1.051 1.65 1.305 2.705.254 1.058.382 2.215.382 3.472v10.468h-4.387v-9.79c0-.998-.067-1.847-.2-2.547-.133-.7-.35-1.27-.653-1.709a2.6 2.6 0 0 0-1.232-.96c-.52-.203-1.155-.303-1.904-.303-.557 0-1.137.035-1.74.107-.605.07-1.053.13-1.342.178v15.024h-4.387v-18.017M619.304 385.393c0-1.847-.4-3.309-1.198-4.388-.8-1.076-1.915-1.617-3.345-1.617-1.43 0-2.546.54-3.345 1.617-.798 1.079-1.197 2.541-1.197 4.388 0 1.872.399 3.353 1.197 4.442.799 1.09 1.915 1.634 3.345 1.634 1.43 0 2.545-.545 3.345-1.634.799-1.089 1.198-2.57 1.198-4.442zm4.436 0c0 1.47-.215 2.808-.644 4.015-.428 1.209-1.037 2.239-1.824 3.091a8.224 8.224 0 0 1-2.843 1.99c-1.11.475-2.333.711-3.668.711s-2.552-.236-3.648-.71a8.232 8.232 0 0 1-2.826-1.99c-.787-.853-1.401-1.883-1.844-3.092-.44-1.207-.66-2.546-.66-4.015 0-1.467.22-2.8.66-3.997.443-1.196 1.061-2.22 1.861-3.072a8.189 8.189 0 0 1 2.844-1.972c1.097-.462 2.3-.693 3.613-.693 1.312 0 2.521.23 3.632.693a7.979 7.979 0 0 1 2.842 1.972c.789.852 1.402 1.876 1.843 3.072.442 1.196.662 2.53.662 3.997zM626.909 371.079l4.285-.702v5.539h6.59v3.542h-6.59v7.467c0 1.472.237 2.523.71 3.154.471.631 1.275.947 2.408.947.78 0 1.47-.08 2.073-.245a13.721 13.721 0 0 0 1.434-.456l.709 3.366c-.495.21-1.146.426-1.949.648-.802.222-1.747.333-2.834.333-1.321 0-2.427-.175-3.312-.526-.885-.35-1.59-.858-2.108-1.525-.52-.665-.886-1.473-1.097-2.418-.214-.946-.32-2.028-.32-3.243v-15.881M658.591 366.68c.97 0 1.826.088 2.567.266.74.177 1.294.336 1.664.477l-.797 3.54a6.602 6.602 0 0 0-1.37-.461 7.636 7.636 0 0 0-1.682-.176c-.671 0-1.237.1-1.7.3a2.78 2.78 0 0 0-1.11.832 3.211 3.211 0 0 0-.59 1.292 7.362 7.362 0 0 0-.172 1.645v1.238h6.59v3.576h-6.59v14.935h-4.198v-19.82c0-2.383.613-4.251 1.84-5.61 1.224-1.355 3.074-2.034 5.548-2.034M676.872 385.393c0-1.847-.4-3.309-1.198-4.388-.8-1.076-1.913-1.617-3.346-1.617-1.43 0-2.545.54-3.343 1.617-.8 1.079-1.199 2.541-1.199 4.388 0 1.872.4 3.353 1.199 4.442.798 1.09 1.913 1.634 3.343 1.634 1.433 0 2.547-.545 3.346-1.634.799-1.089 1.198-2.57 1.198-4.442zm4.435 0c0 1.47-.214 2.808-.644 4.015-.428 1.209-1.036 2.239-1.823 3.091a8.217 8.217 0 0 1-2.844 1.99c-1.11.475-2.33.711-3.668.711-1.335 0-2.55-.236-3.648-.71a8.243 8.243 0 0 1-2.825-1.99c-.787-.853-1.402-1.883-1.842-3.092-.442-1.207-.662-2.546-.662-4.015 0-1.467.22-2.8.662-3.997.44-1.196 1.061-2.22 1.86-3.072a8.193 8.193 0 0 1 2.845-1.972c1.095-.462 2.3-.693 3.61-.693 1.312 0 2.523.23 3.632.693a7.998 7.998 0 0 1 2.844 1.972c.787.852 1.402 1.876 1.842 3.072.44 1.196.661 2.53.661 3.997zM700.849 394.206c-.85.213-1.956.432-3.315.657-1.36.225-2.853.337-4.48.337-1.53 0-2.81-.212-3.84-.64-1.034-.426-1.86-1.018-2.479-1.776s-1.062-1.666-1.329-2.718c-.266-1.054-.401-2.21-.401-3.466v-10.413h4.408v9.739c0 1.989.298 3.41.891 4.263.595.853 1.633 1.28 3.115 1.28.534 0 1.097-.023 1.694-.072.595-.046 1.038-.106 1.328-.177v-15.033h4.408v18.019M706.13 376.655c.846-.235 1.945-.462 3.3-.675 1.353-.214 2.851-.321 4.496-.321 1.546 0 2.84.208 3.88.624 1.037.415 1.866.996 2.482 1.744.619.748 1.052 1.65 1.306 2.705.253 1.058.38 2.215.38 3.472v10.468h-4.386v-9.79c0-.998-.067-1.847-.2-2.547-.133-.7-.35-1.27-.653-1.709a2.6 2.6 0 0 0-1.232-.96c-.52-.203-1.155-.303-1.903-.303-.557 0-1.138.035-1.741.107-.606.07-1.052.13-1.34.178v15.024h-4.389v-18.017M729.51 384.732c0 1.88.445 3.354 1.339 4.423.893 1.07 2.126 1.605 3.701 1.605.681 0 1.264-.03 1.746-.089.482-.058.875-.123 1.181-.194v-10.576c-.377-.257-.876-.498-1.498-.722a5.867 5.867 0 0 0-1.992-.334c-1.553 0-2.686.53-3.402 1.587-.718 1.057-1.075 2.49-1.075 4.3zm12.233 8.707c-.847.259-1.91.493-3.19.704a24.656 24.656 0 0 1-4.038.32c-1.458 0-2.763-.225-3.913-.672-1.152-.446-2.133-1.087-2.945-1.922-.81-.833-1.434-1.843-1.868-3.03-.435-1.186-.652-2.521-.652-4.002 0-1.456.183-2.778.546-3.965.365-1.186.9-2.204 1.604-3.049a7.162 7.162 0 0 1 2.574-1.957c1.01-.458 2.174-.688 3.49-.688.893 0 1.68.106 2.363.318.682.211 1.27.448 1.763.704v-8.848l4.266-.704v26.791z"/>
        <path fill="#2B3A42" d="M21.614 113.892c0 14.011 10.807 24.817 23.514 24.817 12.826 0 23.038-10.806 23.038-24.817 0-14.01-10.212-24.578-23.038-24.578-12.825 0-23.514 10.567-23.514 24.578zm68.286-.118c0 24.222-19.24 42.628-45.009 42.628C19.24 156.402 0 138.116 0 113.774 0 89.55 19.239 71.62 44.891 71.62c25.77 0 45.009 18.048 45.009 42.153zM116.345 123.383c0 9.985 5.844 16.64 14.43 16.64 8.469 0 14.312-6.655 14.312-16.64 0-9.865-5.843-16.64-14.312-16.64-8.586 0-14.43 6.775-14.43 16.64zm49.493-.238c0 19.73-14.073 32.805-35.063 32.805-21.108 0-35.18-13.074-35.18-32.805 0-19.73 14.072-32.685 35.18-32.685 20.99 0 35.063 12.955 35.063 32.685zM226.507 122.848c0-9.728-5.82-16.61-14.37-16.61-8.314 0-14.134 6.882-14.134 16.61 0 9.965 5.82 16.727 14.134 16.727 8.55 0 14.37-6.88 14.37-16.727zm20.665.592c0 19.458-11.64 32.389-29.572 32.389-8.314 0-15.084-3.323-19.597-9.254v31.557h-20.546v-86.96h20.546v8.423c4.513-5.813 11.045-9.135 19.122-9.135 18.052 0 30.047 13.169 30.047 32.98zM307.261 97.728l-6.975 13.347c-7.685-4.17-14.78-6.434-20.101-6.434-3.665 0-6.266 1.43-6.266 4.41 0 8.817 33.579 4.527 33.461 26.93 0 13.228-11.469 20.497-26.84 20.497-10.642 0-20.928-3.098-28.615-9.056l6.504-13.109c7.212 5.125 15.49 7.985 22.584 7.985 4.02 0 6.976-1.43 6.976-4.41 0-9.414-32.988-4.528-32.87-27.05 0-13.228 11.114-20.378 25.894-20.378 9.222 0 18.445 2.622 26.248 7.268M333.374 127.082H320.95l-3.584-32.952V73.03h19.592V94.13l-3.583 32.952zm3.464 19.44c0 5.927-4.182 9.956-10.035 9.956-5.735 0-9.916-4.03-9.916-9.957 0-5.808 4.18-9.838 9.916-9.838 5.853 0 10.035 4.03 10.035 9.838zM22.679 219.328l-4.708-16.067-4.763 16.067H9.747L3.169 198.73H6.77l4.82 16.743 4.792-16.714 3.29-.029 4.821 16.743 4.792-16.743h3.459l-6.635 20.598h-3.431M44.01 210.231c-.118-2.523-1.799-4.049-4.363-4.049-2.476 0-4.214 1.556-4.598 4.049h8.96zm2.947 2.466H35.108c.531 2.406 2.388 3.901 4.864 3.901 1.71 0 3.271-.644 4.42-1.817l1.799 1.907c-1.534 1.672-3.774 2.64-6.485 2.64-4.833 0-8.017-3.198-8.017-7.894 0-4.724 3.271-7.922 7.929-7.95 5.512 0 7.751 3.578 7.34 9.213zM70.598 206.035l-1.818 2.172c-1.069-1.116-2.54-1.79-4.388-1.76-2.655 0-4.561 2.024-4.561 4.987 0 2.965 1.906 4.99 4.561 4.99 1.935 0 3.493-.646 4.532-1.879l1.847 1.878c-1.384 1.848-3.608 2.905-6.523 2.905-4.561 0-7.736-3.198-7.736-7.894 0-4.724 3.175-7.95 7.736-7.95 2.77 0 4.937.908 6.35 2.551M82.798 213.705v-1.436h-4.153c-2.163 0-3.173.586-3.173 2.08 0 1.405 1.125 2.314 2.971 2.314 2.365 0 4.182-1.26 4.355-2.958zm.029 3.572c-1.095 1.376-2.855 2.05-5.077 2.05-3.317 0-5.394-2.08-5.394-4.832 0-2.84 2.106-4.656 5.799-4.686h4.643v-.47c0-1.96-1.24-3.133-3.663-3.133-1.471 0-3 .528-4.53 1.582l-1.354-2.343c2.134-1.288 3.691-1.962 6.606-1.962 3.951 0 6.173 2.05 6.201 5.477l.03 10.22h-3.261v-1.903zM105.1 209.543v9.785h-3.34v-8.839c0-2.364-1.394-3.813-3.72-3.813-2.556.03-4.154 1.832-4.387 4.286v8.366h-3.34V203.6h3.34v3.015c1.105-2.188 3.08-3.133 5.695-3.133 3.603 0 5.753 2.306 5.753 6.06M111.967 200.57c0 .576-.192 1.036-.496 1.497l-1.572 2.473h-1.63l1.05-2.473c-.498-.346-.745-.892-.745-1.497 0-1.092.717-1.84 1.71-1.84.883 0 1.683.661 1.683 1.84M124.114 218.208c-1.187.717-2.431 1.12-3.703 1.12-2.262 0-4.212-1.32-4.212-4.445v-7.916h-2.12V204.5h2.12v-4.187h3.222v4.187h4.439v2.466h-4.439v7.314c0 1.577.594 2.064 1.612 2.064.678 0 1.385-.23 2.261-.66l.82 2.523M144.45 205.065l-1.22 2.49c-1.366-.849-3.08-1.377-4.447-1.377-1.308 0-2.267.439-2.267 1.552 0 2.87 8.226 1.318 8.196 6.971 0 3.192-2.82 4.627-5.93 4.627-2.266 0-4.678-.762-6.218-2.168l1.191-2.4c1.337 1.2 3.488 1.933 5.174 1.933 1.424 0 2.528-.498 2.528-1.67 0-3.193-8.138-1.406-8.108-7.029 0-3.163 2.73-4.51 5.696-4.51 1.947 0 4.01.585 5.405 1.581M158.617 210.231c-.119-2.523-1.799-4.049-4.362-4.049-2.476 0-4.215 1.556-4.598 4.049h8.96zm2.948 2.466h-11.85c.531 2.406 2.388 3.901 4.864 3.901 1.71 0 3.272-.644 4.421-1.817l1.798 1.907c-1.533 1.672-3.773 2.64-6.484 2.64-4.834 0-8.018-3.198-8.018-7.894 0-4.724 3.273-7.922 7.929-7.95 5.511 0 7.752 3.578 7.34 9.213zM176.047 210.231c-.119-2.523-1.8-4.049-4.364-4.049-2.475 0-4.214 1.556-4.597 4.049h8.961zm2.946 2.466h-11.849c.53 2.406 2.388 3.901 4.864 3.901 1.71 0 3.271-.644 4.422-1.817l1.798 1.907c-1.534 1.672-3.773 2.64-6.486 2.64-4.833 0-8.017-3.198-8.017-7.894 0-4.724 3.273-7.922 7.929-7.95 5.512 0 7.752 3.578 7.34 9.213zM207.561 209.543v9.785h-3.348v-8.839c0-2.394-1.398-3.843-3.667-3.843-2.65.088-4.25 2.158-4.25 4.907v7.775h-3.349v-8.839c0-2.394-1.367-3.843-3.639-3.843-2.678.088-4.309 2.158-4.309 4.907v7.775h-3.317V203.6h3.317v3.045c1.078-2.218 3.058-3.163 5.62-3.163 2.764 0 4.656 1.39 5.385 3.784.99-2.63 3.057-3.784 5.88-3.784 3.553 0 5.677 2.306 5.677 6.06M228.159 218.208c-1.188.717-2.43 1.12-3.703 1.12-2.262 0-4.212-1.32-4.212-4.445v-7.916h-2.12V204.5h2.12v-4.187h3.222v4.187h4.44v2.466h-4.44v7.314c0 1.577.594 2.064 1.612 2.064.678 0 1.385-.23 2.262-.66l.819 2.523M233.136 211.434c0 3.023 1.976 5.078 4.809 5.078 2.802 0 4.779-2.055 4.779-5.078 0-2.992-1.977-5.046-4.78-5.046-2.832 0-4.808 2.054-4.808 5.046zm12.98-.029c0 4.695-3.333 7.923-8.171 7.923-4.868 0-8.202-3.228-8.202-7.923 0-4.723 3.334-7.922 8.202-7.922 4.838 0 8.17 3.2 8.17 7.922zM266.196 219.328h3.389v-15.65h-3.39v15.65zm-.298-20.124c0-1.205.863-2.058 1.992-2.058 1.13 0 1.992.853 1.992 2.058 0 1.178-.862 2.03-1.992 2.03-1.129 0-1.992-.852-1.992-2.03zm-9.25 3.532c0-3.736 2.795-5.383 5.443-5.383 1.07 0 2.112.234 2.944.705l-.12 2.94c-.92-.41-1.903-.676-2.735-.676-1.22 0-2.142.56-2.142 2.09v1.824h4.134v2.53h-4.134v12.562h-3.39v-12.561h-2.082v-2.53h2.081v-1.501zM288.896 209.543v9.785h-3.342v-8.839c0-2.364-1.395-3.813-3.72-3.813-2.555.03-4.153 1.832-4.386 4.286v8.366h-3.34V203.6h3.34v3.015c1.104-2.188 3.08-3.133 5.696-3.133 3.6 0 5.752 2.306 5.752 6.06M304.528 211.529c0-2.985-1.969-5.072-4.791-5.072-2.821 0-4.79 2.116-4.821 5.072.03 2.929 1.97 5.017 4.821 5.017 2.822 0 4.79-2.088 4.79-5.017zm3.38 7.653h-3.38v-2.636c-1.116 1.795-2.998 2.782-5.496 2.782-4.497 0-7.496-3.219-7.496-7.915 0-4.637 3.028-7.797 7.437-7.797 2.528 0 4.41 1.015 5.555 2.813v-8.755h3.38v21.508zM328.506 218.208c-1.187.717-2.43 1.12-3.702 1.12-2.261 0-4.213-1.32-4.213-4.445v-7.916h-2.12V204.5h2.12v-4.187h3.224v4.187h4.437v2.466h-4.437v7.314c0 1.577.593 2.064 1.611 2.064.678 0 1.385-.23 2.26-.66l.82 2.523M346.991 209.668v9.66h-3.334v-8.726c0-2.334-1.39-3.765-3.71-3.765-2.755.03-4.408 2.101-4.408 4.844v7.647h-3.336v-21.654h3.336v9.163c1.102-2.188 3.073-3.151 5.712-3.151 3.596 0 5.74 2.276 5.74 5.982M361.425 210.231c-.118-2.523-1.798-4.049-4.363-4.049-2.476 0-4.215 1.556-4.598 4.049h8.96zm2.948 2.466h-11.85c.53 2.406 2.387 3.901 4.864 3.901 1.71 0 3.271-.644 4.421-1.817l1.798 1.907c-1.534 1.672-3.773 2.64-6.485 2.64-4.834 0-8.017-3.198-8.017-7.894 0-4.724 3.272-7.922 7.929-7.95 5.512 0 7.752 3.578 7.34 9.213zM18.232 245.569c0-2.865-1.977-4.978-4.78-4.978-2.802 0-4.779 2.085-4.779 4.978 0 2.98 1.977 5.035 4.779 5.035 2.803 0 4.78-2.083 4.78-5.035zm3.422.116c0 4.601-2.95 7.755-7.434 7.755-2.508 0-4.396-.985-5.547-2.777v8.276H5.281v-21.01h3.392v2.662c1.15-1.794 3.039-2.778 5.488-2.778 4.453 0 7.493 3.183 7.493 7.872zM33.68 248.034v-1.435h-4.152c-2.164 0-3.173.585-3.173 2.079 0 1.406 1.124 2.314 2.97 2.314 2.366 0 4.183-1.26 4.356-2.958zm.03 3.573c-1.097 1.375-2.857 2.05-5.077 2.05-3.318 0-5.395-2.08-5.395-4.832 0-2.84 2.107-4.657 5.8-4.686h4.643v-.469c0-1.962-1.241-3.133-3.663-3.133-1.472 0-3 .527-4.53 1.581l-1.356-2.343c2.136-1.288 3.693-1.962 6.607-1.962 3.952 0 6.173 2.05 6.202 5.476l.03 10.221h-3.262v-1.903zM52.16 245.191c0-2.766-1.82-4.697-4.42-4.697-2.63 0-4.452 1.96-4.48 4.697.028 2.767 1.82 4.727 4.48 4.727 2.6 0 4.42-1.96 4.42-4.727zm3.295 6.571c0 4.41-3.15 7.177-7.976 7.177-2.399 0-4.508-.75-6.388-2.018l1.417-2.391c1.445 1.067 2.948 1.671 4.826 1.671 2.919 0 4.827-1.7 4.827-4.353v-1.93c-1.04 1.671-2.775 2.594-5.087 2.594-4.161 0-6.935-2.997-6.935-7.406 0-4.324 2.745-7.264 6.82-7.293 2.37-.028 4.132.923 5.202 2.594v-2.477h3.294v13.832zM70.945 244.561c-.118-2.523-1.798-4.048-4.363-4.048-2.476 0-4.215 1.554-4.598 4.048h8.96zm2.948 2.465h-11.85c.53 2.405 2.387 3.902 4.864 3.902 1.709 0 3.272-.644 4.421-1.819l1.798 1.908c-1.534 1.672-3.773 2.64-6.486 2.64-4.833 0-8.016-3.197-8.016-7.893 0-4.724 3.272-7.922 7.929-7.951 5.511 0 7.752 3.58 7.34 9.213zM90.091 255.297c-.966 2.429-2.723 3.642-5.067 3.642-1.404 0-2.517-.405-3.602-1.301l1.436-2.572c.732.521 1.318.752 2.02.752 1.025 0 1.846-.55 2.373-1.705l.527-1.156-6.444-15.144h3.486l4.656 11.646 4.334-11.646h3.369l-7.088 17.484M101.1 245.764c0 3.023 1.977 5.077 4.808 5.077 2.802 0 4.778-2.054 4.778-5.077 0-2.992-1.976-5.046-4.778-5.046-2.831 0-4.808 2.054-4.808 5.046zm12.98-.03c0 4.696-3.334 7.923-8.172 7.923-4.868 0-8.201-3.227-8.201-7.923 0-4.723 3.333-7.921 8.2-7.921 4.839 0 8.172 3.198 8.172 7.921zM131.508 253.54h-3.4v-3.075c-1.066 2.186-3.047 3.163-5.62 3.192-3.61 0-5.768-2.307-5.768-6.06v-9.784h3.4v8.838c0 2.366 1.392 3.814 3.67 3.814 2.72-.06 4.317-2.159 4.317-4.907v-7.745h3.401v15.726M138.374 234.9c0 .576-.193 1.035-.496 1.496l-1.573 2.473h-1.628l1.049-2.473c-.497-.345-.746-.892-.746-1.497 0-1.092.719-1.84 1.712-1.84.882 0 1.682.662 1.682 1.84M144.996 241.064c1.081-2.128 3.003-3.251 5.525-3.251v3.251c-3.212-.176-5.255 1.686-5.525 4.375v8.218h-3.453v-15.725h3.453v3.132M164.427 244.561c-.12-2.523-1.799-4.048-4.363-4.048-2.476 0-4.215 1.554-4.598 4.048h8.96zm2.947 2.465h-11.85c.531 2.405 2.389 3.902 4.865 3.902 1.708 0 3.27-.644 4.42-1.819l1.799 1.908c-1.534 1.672-3.773 2.64-6.486 2.64-4.833 0-8.016-3.197-8.016-7.893 0-4.724 3.271-7.922 7.929-7.951 5.51 0 7.752 3.58 7.34 9.213zM177.985 253.129h3.169v-21.654h-3.169zM187.716 245.764c0 3.023 1.976 5.077 4.808 5.077 2.803 0 4.778-2.054 4.778-5.077 0-2.992-1.975-5.046-4.778-5.046-2.832 0-4.808 2.054-4.808 5.046zm12.98-.03c0 4.696-3.334 7.923-8.172 7.923-4.868 0-8.201-3.227-8.201-7.923 0-4.723 3.333-7.921 8.2-7.921 4.839 0 8.172 3.198 8.172 7.921zM205.672 245.764c0 3.023 1.977 5.077 4.81 5.077 2.801 0 4.778-2.054 4.778-5.077 0-2.992-1.977-5.046-4.779-5.046-2.832 0-4.81 2.054-4.81 5.046zm12.98-.03c0 4.696-3.334 7.923-8.17 7.923-4.87 0-8.202-3.227-8.202-7.923 0-4.723 3.332-7.921 8.201-7.921 4.837 0 8.171 3.198 8.171 7.921zM225.65 248.78v4.349h-3.3v-21.654h3.3v13.074l6.742-6.945h3.786l-5.652 6.01 6.083 9.515h-3.902l-4.477-7.12-2.58 2.772M239.526 253.657h3.144v-15.65h-3.144v15.65zm3.42-20.123c0 1.177-.8 2.03-1.848 2.03s-1.848-.853-1.848-2.03c0-1.206.8-2.059 1.848-2.059s1.849.853 1.849 2.059zM261.96 243.872v9.785h-3.341v-8.839c0-2.364-1.395-3.812-3.72-3.812-2.556.03-4.154 1.832-4.387 4.286v8.365h-3.34v-15.725h3.34v3.014c1.105-2.187 3.081-3.133 5.695-3.133 3.602 0 5.753 2.305 5.753 6.059M276.622 245.191c0-2.766-1.82-4.697-4.421-4.697-2.63 0-4.451 1.96-4.478 4.697.027 2.767 1.818 4.727 4.478 4.727 2.6 0 4.42-1.96 4.42-4.727zm3.295 6.571c0 4.41-3.15 7.177-7.977 7.177-2.399 0-4.508-.75-6.386-2.018l1.416-2.391c1.446 1.067 2.947 1.671 4.826 1.671 2.919 0 4.826-1.7 4.826-4.353v-1.93c-1.04 1.671-2.774 2.594-5.086 2.594-4.16 0-6.935-2.997-6.935-7.406 0-4.324 2.746-7.264 6.82-7.293 2.37-.028 4.132.923 5.2 2.594v-2.477h3.296v13.832zM296.747 236.46v1.827h3.937v2.492h-3.937v12.35h-3.228v-12.35h-1.983v-2.492h1.983v-1.508c0-3.595 2.577-5.304 5.182-5.304 1.217 0 2.436.347 3.398 1.072l-1.245 2.55c-.624-.463-1.388-.724-2.067-.724-1.105 0-2.04.638-2.04 2.087M303.38 245.764c0 3.023 1.976 5.077 4.809 5.077 2.8 0 4.777-2.054 4.777-5.077 0-2.992-1.977-5.046-4.777-5.046-2.833 0-4.81 2.054-4.81 5.046zm12.98-.03c0 4.696-3.334 7.923-8.171 7.923-4.869 0-8.202-3.227-8.202-7.923 0-4.723 3.333-7.921 8.202-7.921 4.837 0 8.17 3.198 8.17 7.921zM322.981 241.064c1.081-2.128 3.003-3.251 5.525-3.251v3.251c-3.212-.176-5.255 1.686-5.525 4.375v8.218h-3.453v-15.725h3.453v3.132M333.26 251.252c0 1.092-.68 1.877-1.585 1.877-.905 0-1.584-.785-1.584-1.877 0-1.064.679-1.82 1.584-1.82s1.585.756 1.585 1.82M6.486 284.448v5.206h7.64v1.742h-7.64v5.432h8.83v1.721H4.753v-15.844h10.28v1.743H6.487M20.182 289.032c.762-1.688 2.177-2.609 4.113-2.63v1.731c-2.416-.044-3.917 1.47-4.113 3.748v6.14h-1.697v-11.555h1.697v2.566M28.104 289.032c.761-1.688 2.177-2.609 4.113-2.63v1.731c-2.416-.044-3.917 1.47-4.113 3.748v6.14h-1.697v-11.555h1.697v2.566M34.971 292.213c0 2.533 1.718 4.28 4.112 4.28 2.393 0 4.112-1.747 4.112-4.28 0-2.512-1.719-4.26-4.112-4.26-2.394 0-4.112 1.748-4.112 4.26zm9.921-.022c0 3.451-2.414 5.83-5.81 5.83-3.393 0-5.809-2.379-5.809-5.83 0-3.43 2.416-5.789 5.81-5.789 3.395 0 5.81 2.36 5.81 5.789zM50.286 289.032c.761-1.688 2.176-2.609 4.113-2.63v1.731c-2.415-.044-3.917 1.47-4.113 3.748v6.14H48.59v-11.555h1.697v2.566M71.657 288.106l-.914 1.202c-.85-.83-1.977-1.333-3.338-1.333-2.317 0-3.976 1.726-3.976 4.238 0 2.51 1.66 4.258 3.976 4.258 1.467 0 2.679-.524 3.465-1.484l.958 1.047c-1 1.245-2.552 1.987-4.487 1.987-3.252 0-5.548-2.379-5.548-5.808s2.317-5.81 5.548-5.81c1.807-.022 3.295.612 4.316 1.703M75.11 292.213c0 2.533 1.718 4.28 4.112 4.28 2.393 0 4.112-1.747 4.112-4.28 0-2.512-1.719-4.26-4.112-4.26-2.394 0-4.113 1.748-4.113 4.26zm9.921-.022c0 3.451-2.415 5.83-5.81 5.83-3.394 0-5.809-2.379-5.809-5.83 0-3.43 2.415-5.789 5.81-5.789 3.394 0 5.81 2.36 5.81 5.789zM96.546 292.71c0-2.523-1.708-4.345-4.11-4.345-2.423 0-4.132 1.822-4.132 4.345 0 2.502 1.709 4.303 4.132 4.303 2.402 0 4.11-1.801 4.11-4.303zm1.689 5.752h-1.689v-2.48c-.843 1.624-2.4 2.567-4.434 2.567-3.246 0-5.496-2.436-5.496-5.882 0-3.468 2.25-5.86 5.474-5.86 2.033 0 3.613.945 4.456 2.59v-7.22h1.689v16.285zM110.955 291.47c-.11-2.206-1.596-3.604-3.848-3.604-2.185 0-3.758 1.42-4.021 3.604h7.869zm1.529 1.397h-9.398c.306 2.25 1.945 3.67 4.175 3.67 1.42 0 2.666-.503 3.562-1.441l.94 1.004c-1.093 1.222-2.71 1.921-4.633 1.921-3.39 0-5.726-2.379-5.726-5.808 0-3.43 2.36-5.81 5.703-5.81 3.716-.022 5.55 2.555 5.377 6.464zM116.72 297.386c0 .672-.457 1.163-1.045 1.163-.61 0-1.067-.49-1.067-1.163 0-.672.458-1.165 1.067-1.165.588 0 1.045.493 1.045 1.165zm0-6.652c0 .673-.457 1.165-1.045 1.165-.61 0-1.067-.492-1.067-1.165 0-.67.458-1.163 1.067-1.163.588 0 1.045.492 1.045 1.163zM131.85 292.642v-4.188h1.61v4.188h2.273v1.74h-2.273v4.167h-1.61v-4.166h-7.208v-1.492l5.385-10.186h1.695l-5.235 9.937h5.362M139.094 290.627c0 4.253 1.58 6.392 4.562 6.392s4.56-2.139 4.56-6.392c0-4.276-1.578-6.391-4.56-6.391-2.983 0-4.562 2.115-4.562 6.39zm10.9 0c0 5.087-2.26 7.922-6.338 7.922s-6.338-2.835-6.338-7.922c0-5.086 2.26-7.922 6.338-7.922 4.079 0 6.337 2.836 6.337 7.922zM159.313 292.642v-4.188h1.61v4.188h2.274v1.74h-2.274v4.167h-1.61v-4.166h-7.207v-1.492l5.384-10.186h1.695l-5.235 9.937h5.363"/>
    </g>
</svg>
