<svg xmlns="http://www.w3.org/2000/svg" width="32" height="32" viewBox="0 0 32 32">
    <g fill="none" fill-rule="evenodd">
        <rect width="32" height="32" rx="4"/>
        <path stroke="#2B3A42" d="M15.32 19.993a2.871 2.871 0 0 1-.069.005h.008a55.718 55.718 0 0 0-.04.006c.02-.004.022-.005-.074.026a.236.236 0 0 0 .049-.015l-.004.002-.052.034-4.892 4.055V20.21a.216.216 0 0 0-.216-.217H8.239c-.371 0-.739-.244-.739-.634V9.14c0-.385.367-.639.739-.639H23.76c.372 0 .739.254.739.639v10.22c0 .39-.368.634-.739.634h-8.44zm-.126.022c-.004.002-.004.001-.002 0z"/>
    </g>
</svg>
