<svg xmlns="http://www.w3.org/2000/svg" width="24" height="24" viewBox="0 0 24 24">
    <path fill="#FF530D" fill-rule="evenodd" d="M7.928 10.925a.9.9 0 1 0 0 1.8h8.2a.9.9 0 1 0 0-1.8h-8.2zm10.994 7.795c-3.801 3.801-9.987 3.801-13.788 0-3.802-3.802-3.802-9.988 0-13.79 3.801-3.8 9.987-3.8 13.788 0 3.802 3.802 3.802 9.988 0 13.79zM3.861 3.658c-4.504 4.504-4.504 11.831 0 16.335a11.513 11.513 0 0 0 8.167 3.377c2.958 0 5.915-1.126 8.167-3.377 4.503-4.504 4.503-11.831 0-16.335C15.69-.845 8.364-.845 3.86 3.658z"/>
</svg>
