<svg xmlns="http://www.w3.org/2000/svg" width="24" height="24" viewBox="0 0 24 24">
    <g fill="none" fill-rule="evenodd">
        <rect width="23" height="23" x=".5" y=".5" fill="#FFF" stroke="#D4D7D9" rx="11.5"/>
        <path fill="#D4D7D9" d="M16.19 7.8a4.296 4.296 0 0 1-4.29 4.291A4.295 4.295 0 0 1 7.61 7.8a4.295 4.295 0 0 1 4.29-4.291A4.296 4.296 0 0 1 16.19 7.8zm-5.91 5.184c2.07-.01 4.68-.024 6.03-.024 2.487 0 3.83 2.074 3.83 4.022V20.4c0 .2-.314.501-.94.902l-.72.538a7.783 7.783 0 0 1-2.556 1.27c-1.435.42-1.564.65-4.025.65-.906 0-2.008-.09-3.259-.48-.834-.26-1.954-.74-3.36-1.44l-.72-.72c-.6-.28-.901-.52-.901-.72v-3.158c0-1.224.492-2.434 1.316-3.24.679-.668 1.547-1.023 2.439-1.008h.005c.354 0 1.488-.005 2.862-.01z"/>
    </g>
</svg>
