<svg xmlns="http://www.w3.org/2000/svg" width="16" height="16" fill="none" viewBox="0 0 16 16">
    <path fill="#2B3A42" fill-rule="evenodd" d="M11.8 9.329a267.95 267.95 0 0 1-3.715 4.318c-.791-.88-2.595-2.889-3.823-4.322C2.5 7.27 1.89 6.485 1.89 5.1c0-1.287 1.007-3.147 2.828-3.147 2.413.004 2.82 2.206 2.837 2.31l.004.015c.004.019.01.038.016.057.005.02.01.035.017.054l.024.05.025.046.037.05c.01.012.018.023.028.03.016.02.035.035.053.05.008.009.016.016.025.02.02.015.043.027.066.042l.025.012c.022.011.045.02.069.027.011.004.023.004.035.007.008.004.016.008.024.008.014.004.028 0 .043.004h.042c.022 0 .043 0 .065-.004h.029c.006 0 .01-.004.016-.004.02-.004.04-.011.06-.019.014-.004.03-.008.044-.015.018-.008.034-.02.05-.027a.22.22 0 0 0 .043-.027c.015-.012.03-.023.043-.035a1.74 1.74 0 0 0 .038-.034l.036-.046.03-.039c.01-.015.018-.034.026-.05l.024-.05c.006-.015.011-.034.016-.05a.76.76 0 0 0 .016-.061c0-.008.003-.012.004-.02.015-.091.384-2.297 2.746-2.3 1.764 0 2.739 1.859 2.739 3.146 0 1.39-.594 2.174-2.312 4.23zm-.427-8.53c-1.704.005-2.73.907-3.29 1.849C7.512 1.706 6.462.804 4.718.8 2.41.8.8 3.067.8 5.099c0 1.902.944 3.004 2.657 4.998 1.612 1.883 4.214 4.76 4.24 4.791l.016.012.006.011c.004.004.01.004.015.008a.489.489 0 0 0 .172.107c.06.024.121.039.184.039a.532.532 0 0 0 .189-.038c.005 0 .01-.004.015-.004a.589.589 0 0 0 .159-.108l.014-.011c.002 0 .003-.004.005-.008.005-.004.011-.008.016-.015a291.43 291.43 0 0 0 4.128-4.787C14.282 8.096 15.2 6.997 15.2 5.099c0-2.032-1.571-4.3-3.827-4.3z" clip-rule="evenodd"/>
</svg>
