<svg xmlns="http://www.w3.org/2000/svg" width="24" height="16" viewBox="0 0 24 16">
    <path fill="#AAB0B3" fill-rule="evenodd" d="M12.217 10.496c-1.43 0-2.594-1.141-2.594-2.539 0-1.397 1.163-2.533 2.594-2.533 1.43 0 2.595 1.136 2.595 2.533 0 1.398-1.164 2.539-2.595 2.539zM7.893 7.957c0 2.331 1.94 4.23 4.324 4.23 2.385 0 4.324-1.899 4.324-4.23 0-2.33-1.94-4.229-4.324-4.229-2.385 0-4.324 1.899-4.324 4.23zM11.837.208c4.086-.128 7.988 2.283 11.6 7.11a.835.835 0 0 1 .05.927c-.178.299-4.435 7.318-10.985 7.611-.14.005-.282.01-.422.01-3.99 0-7.863-2.538-11.522-7.557a.837.837 0 0 1-.022-.954C.725 7.072 5.228.395 11.837.208z"/>
</svg>
