<svg xmlns="http://www.w3.org/2000/svg" width="24" height="24" viewBox="0 0 24 24">
    <path fill="none" fill-rule="nonzero" stroke="#FFF" stroke-width="2" d="M10.78 22.538a1.457 1.457 0 0 1-.395-1l-1 1h1.395zm2.128 0h1.4l-1-1c0 .386-.153.738-.4 1zM3 19.491l-.293.293.197-.476H3v.183zm.183-.183H20.51L18.23 17.03v-6.568c0-3.46-1.828-6.107-4.77-6.806l-.769-.183V1.846A.844.844 0 0 0 11.846 1a.844.844 0 0 0-.846.846v1.628l-.77.182c-2.952.7-4.768 3.332-4.768 6.806v6.568l-2.279 2.278zm17.51 0h.095l.197.476-.293-.293v-.183z"/>
</svg>
