<svg xmlns="http://www.w3.org/2000/svg" width="24" height="22" viewBox="0 0 24 22">
    <g fill="none" fill-rule="evenodd">
        <path fill="#AAB0B3" d="M12.217 13.735a2.6 2.6 0 0 1-2.594-2.597 2.595 2.595 0 0 1 5.189 0 2.6 2.6 0 0 1-2.595 2.597zm0-6.922a4.33 4.33 0 0 0-4.324 4.325 4.33 4.33 0 0 0 4.324 4.326 4.33 4.33 0 0 0 4.324-4.326 4.33 4.33 0 0 0-4.324-4.325zm11.22 3.67a.87.87 0 0 1 .05.95c-.178.305-4.435 7.483-10.985 7.783-.14.006-.282.011-.422.011-3.99 0-7.863-2.596-11.522-7.729a.872.872 0 0 1-.022-.976c.189-.29 4.692-7.118 11.301-7.31 4.086-.13 7.988 2.335 11.6 7.272z"/>
        <path fill="#FFF" fill-rule="nonzero" d="M19.975.59l1.414 1.414L3.004 20.39 1.59 18.975z"/>
        <path fill="#AAB0B3" fill-rule="nonzero" d="M20.97 1.586L22.386 3 4 21.385 2.586 19.97z"/>
    </g>
</svg>
