<svg xmlns="http://www.w3.org/2000/svg" width="18" height="18" fill="none" viewBox="0 0 18 18">
    <path fill="#2B3A42" fill-rule="evenodd" d="M13.275 10.496a301.321 301.321 0 0 1-4.18 4.858c-.89-.99-2.919-3.25-4.3-4.863-1.984-2.312-2.67-3.194-2.67-4.754 0-1.448 1.133-3.54 3.182-3.54 2.714.004 3.171 2.481 3.191 2.598l.005.017c.005.022.011.043.018.065a.684.684 0 0 0 .019.06c.007.018.017.035.027.056.01.018.018.035.029.052.012.018.027.035.04.057.011.013.02.025.032.034.019.022.039.039.06.056.01.009.018.018.028.022.023.017.048.03.074.047.01.005.018.01.028.013.025.013.051.022.078.03.013.005.026.005.039.01.01.004.018.008.027.008.016.004.032 0 .049.004h.047c.025 0 .049 0 .073-.004h.032c.007 0 .013-.004.019-.004.023-.005.045-.013.067-.022.016-.004.034-.009.05-.017.02-.009.038-.022.057-.03.016-.01.032-.018.047-.03l.049-.04.042-.039c.015-.017.027-.034.04-.051.012-.013.024-.03.034-.044.012-.017.02-.039.03-.056.01-.021.02-.039.027-.056.007-.017.012-.039.018-.056a.858.858 0 0 0 .018-.07c0-.008.004-.012.004-.021.017-.104.432-2.585 3.09-2.589 1.984 0 3.08 2.092 3.08 3.54 0 1.565-.668 2.446-2.6 4.759zM12.795.9c-1.917.005-3.071 1.02-3.7 2.08C8.45 1.92 7.268.904 5.306.9 2.71.9.9 3.45.9 5.737c0 2.14 1.062 3.38 2.989 5.623 1.814 2.118 4.74 5.355 4.77 5.39l.018.013.007.013c.005.004.011.004.017.009.053.051.112.09.175.116.006.005.012.005.018.005a.578.578 0 0 0 .207.043.6.6 0 0 0 .212-.044c.006 0 .012-.004.018-.004a.663.663 0 0 0 .178-.12l.016-.014c.003 0 .004-.004.006-.008.006-.005.013-.01.018-.018.029-.03 2.878-3.267 4.644-5.385 1.875-2.248 2.907-3.484 2.907-5.62C17.1 3.45 15.332.9 12.794.9z" clip-rule="evenodd"/>
</svg>
