<svg xmlns="http://www.w3.org/2000/svg" width="150" height="150" viewBox="0 0 150 150">
    <g fill="none" fill-rule="evenodd">
        <circle cx="75" cy="75" r="75" fill="#CCEDF3"/>
        <path fill="#57A4FF" d="M84.01 44.032H84l1.734 1.735zM61.29 101.839l-4.129-4.13v4.13zM85.734 45.767l8.537 8.588h.052z"/>
        <path fill="#66CADC" d="M84 44.032v10.323h10.271l-8.537-8.588zM97.42 97.71a8.258 8.258 0 0 1-8.259 8.258 8.258 8.258 0 0 1-8.258-8.258 8.258 8.258 0 0 1 8.258-8.258 8.258 8.258 0 0 1 8.258 8.258z"/>
        <path fill="#005587" fill-rule="nonzero" d="M95.052 53.625l-10.31-10.323a.918.918 0 0 0-.09-.06 1.035 1.035 0 0 0-.207-.139.923.923 0 0 0-.119-.041.984.984 0 0 0-.253-.05c-.027 0-.05-.012-.073-.012H53.032c-.57 0-1.032.462-1.032 1.032v61.936c0 .57.462 1.032 1.032 1.032H74.71a1.032 1.032 0 0 0 0-2.065H54.065v-59.87h28.903v9.29c0 .57.462 1.032 1.032 1.032h9.29v30.968a1.032 1.032 0 0 0 2.065 0V54.406a.75.75 0 0 0-.012-.082 1.019 1.019 0 0 0-.29-.699zm-10.02-7.1l6.757 6.798h-6.757v-6.798z"/>
        <path fill="#005587" d="M86.065 105.968c.57 0 1.032-.462 1.032-1.033v-14.77l4.51 4.852 1.21-1.127-6.752-7.261-6.756 7.261 1.21 1.127 4.513-4.854v14.772c0 .57.462 1.033 1.033 1.033z"/>
        <path fill="#004FAC" d="M57.161 96.677c-.57 0-1.032.463-1.032 1.033v4.129c0 .57.462 1.032 1.032 1.032h4.13a1.032 1.032 0 0 0 0-2.065h-1.033l-2.064-2.064V97.71c0-.57-.463-1.033-1.033-1.033z"/>
    </g>
</svg>
