<svg xmlns="http://www.w3.org/2000/svg" width="96" height="96" viewBox="0 0 96 96">
    <g fill="none" fill-rule="nonzero">
        <circle cx="48" cy="48" r="48" fill="#FFF7D2"/>
        <path fill="#FFCC73" d="M48 82.286c-15.125 0-27.429-12.304-27.429-27.429a2.287 2.287 0 0 1 4.572 0c0 12.604 10.254 22.857 22.857 22.857s22.857-10.253 22.857-22.857a2.287 2.287 0 0 1 4.572 0c0 15.125-12.304 27.429-27.429 27.429zM36.571 38.857a2.287 2.287 0 0 1-2.285-2.286 6.866 6.866 0 0 0-6.857-6.857 6.866 6.866 0 0 0-6.858 6.857 2.287 2.287 0 0 1-4.571 0c0-6.301 5.127-11.428 11.429-11.428 6.301 0 11.428 5.127 11.428 11.428a2.287 2.287 0 0 1-2.286 2.286zM77.714 38.857a2.287 2.287 0 0 1-2.285-2.286 6.866 6.866 0 0 0-6.858-6.857 6.866 6.866 0 0 0-6.857 6.857 2.287 2.287 0 0 1-4.571 0c0-6.301 5.127-11.428 11.428-11.428C74.873 25.143 80 30.27 80 36.57a2.287 2.287 0 0 1-2.286 2.286z"/>
    </g>
</svg>
