<svg xmlns="http://www.w3.org/2000/svg" width="45" height="45" viewBox="0 0 45 45">
    <g fill="none" fill-rule="evenodd">
        <rect width="45" height="45" opacity=".5" rx="4"/>
        <path fill="#2B3A42" d="M30.049 30.432c-.005.834-.556.972-.878.98l-13.722.003c-.259 0-.464-.072-.61-.215-.21-.21-.317-.6-.317-1.126V21.23h15.532c0 3.308.005 8.033-.005 9.203zM15.502 16.778h1.405v1.075a.731.731 0 1 0 1.464 0v-1.076h7.722v1.076a.731.731 0 1 0 1.463 0v-1.076h1.468c.356.013.61.103.771.28.23.245.264.645.259.77v1.939H14.522v-1.89c0-.766.293-1.094.98-1.098zm15.386-.698c-.303-.331-.859-.733-1.84-.765h-1.492v-1.12a.731.731 0 1 0-1.463 0v1.12l-7.722-.001v-1.12a.731.731 0 1 0-1.463 0v1.12h-1.41c-1.18.007-2.444.684-2.44 2.563 0 .12.005 11.453 0 12.194 0 .94.25 1.668.747 2.164.424.421.99.644 1.639.644h.005l13.717-.003h.005c.936 0 2.331-.648 2.341-2.435.015-1.805.005-12.044.005-12.548.005-.202.005-1.11-.63-1.813zM21.37 28.203a.892.892 0 1 0 1.784-.001.892.892 0 0 0-1.784 0zm-4.566 0a.892.892 0 1 0 1.784-.001.892.892 0 0 0-1.784 0zm9.132 0a.892.892 0 1 0 1.784-.001.892.892 0 0 0-1.784 0zm-4.566-4.024a.892.892 0 1 0 1.784-.002.892.892 0 0 0-1.784.002zm4.566 0a.892.892 0 1 0 1.784-.002.892.892 0 0 0-1.784.002z"/>
    </g>
</svg>
