<svg xmlns="http://www.w3.org/2000/svg" width="45" height="45" viewBox="0 0 45 45">
    <g fill="none" fill-rule="evenodd">
        <rect width="45" height="45" rx="4"/>
        <path fill="#2B3A42" d="M12.908 15.739c-.02.275.006 1.128.723 2.992l.023.066c.957 3.437 7.885 11.015 11.767 12.874 2.903 1.389 4.59 1.654 4.916 1.567.374-.148 1.464-1.455 1.93-2.012.225-.27.428-.515.59-.694.135-.153.13-.24.128-.27-.009-.149-.147-.328-.231-.41l-3.902-2.644a1.753 1.753 0 0 0-1.037-.005l-2.777 1.511-.39-.276c-4.247-2.997-6.867-7.087-6.977-7.261l-.23-.363.19-.388c.04-.076.975-1.98 1.43-2.752.116-.2-.067-.807-.303-1.195-.719-1.113-2.05-3.048-2.512-3.442-.208-.178-.469-.04-.57.026-1.158 1-2.494 2.272-2.768 2.676zm11.852 17.31c-4.221-2.017-11.478-9.993-12.57-13.802-.65-1.69-.92-3.018-.784-3.84.042-.256.131-.787 3.298-3.534l.042-.03c.454-.343 1.56-.777 2.498.03.763.654 2.476 3.273 2.812 3.79.112.183.984 1.674.324 2.792-.305.516-.877 1.65-1.178 2.252.692.996 2.854 3.912 5.947 6.2l2.019-1.093c.106-.046 1.07-.46 2.284-.02l.173.086 4.1 2.783c.074.061.728.638.788 1.486.024.352-.045.878-.515 1.404-.152.169-.343.398-.555.654-1.102 1.317-1.938 2.272-2.653 2.492a2.046 2.046 0 0 1-.593.076c-1.337 0-3.592-.842-5.437-1.726z"/>
    </g>
</svg>
