<svg xmlns="http://www.w3.org/2000/svg" width="24" height="24" viewBox="0 0 24 24">
    <path fill="#2B3A42" fill-rule="evenodd" d="M13.76 22.05C9.539 20.031 2.282 12.055 1.19 8.246.54 6.557.27 5.229.405 4.407.448 4.15.537 3.62 3.704.873l.042-.03C4.2.5 5.306.066 6.244.873c.763.654 2.476 3.273 2.812 3.79.112.183.984 1.674.324 2.792-.305.516-.877 1.65-1.178 2.252.692.996 2.854 3.912 5.947 6.2l2.019-1.093c.106-.046 1.07-.46 2.284-.02l.173.086 4.1 2.783c.074.061.728.638.788 1.486.024.352-.045.878-.515 1.404-.152.169-.343.398-.555.654-1.102 1.317-1.938 2.272-2.653 2.492a2.046 2.046 0 0 1-.593.076c-1.337 0-3.592-.842-5.437-1.726z"/>
</svg>
