<svg xmlns="http://www.w3.org/2000/svg" width="24" height="24" viewBox="0 0 24 24">
    <g fill="none" fill-rule="evenodd">
        <circle cx="12" cy="12" r="12" fill="#CCEDF3"/>
        <path fill="#32B9D1" d="M13.026 17.862c-2.462-1.176-6.695-5.83-7.332-8.051-.379-.986-.537-1.76-.457-2.24.025-.15.076-.46 1.924-2.062l.024-.018c.265-.2.91-.452 1.457.018.445.382 1.445 1.91 1.64 2.21.066.108.575.978.19 1.63-.179.3-.512.962-.687 1.314.403.58 1.665 2.281 3.468 3.616l1.178-.638a1.851 1.851 0 0 1 1.333-.012l.1.051 2.392 1.623c.043.036.425.373.46.867.014.206-.026.513-.3.82-.09.098-.2.232-.324.38-.643.77-1.13 1.326-1.548 1.454-.097.03-.214.045-.345.045-.78 0-2.096-.492-3.173-1.007z"/>
    </g>
</svg>
