<svg xmlns="http://www.w3.org/2000/svg" width="24" height="24" viewBox="0 0 24 24">
    <path fill="#2B3A42" fill-rule="evenodd" d="M12.507 10.48c-1.214 0-2.201-.99-2.201-2.205 0-1.21.987-2.2 2.2-2.2 1.214 0 2.202.99 2.202 2.2a2.206 2.206 0 0 1-2.201 2.205zm0-5.905c-2.041 0-3.701 1.66-3.701 3.7a3.706 3.706 0 0 0 3.7 3.705 3.706 3.706 0 0 0 3.702-3.705c0-2.04-1.66-3.7-3.701-3.7zm6.401 5.675c-.165.655-.756 1.945-1.229 2.675-.233.39-3.697 6.29-5.179 8.815l-5.518-9.71-.035-.065c-.14-.25-.431-.765-.638-1.42a7.85 7.85 0 0 1-.39-2.385 6.595 6.595 0 0 1 6.588-6.59c3.799 0 6.388 3.045 6.695 5.985.078.745-.015 1.605-.294 2.695zm1.786-2.85C20.258 3.225 16.738.07 12.507.07c-4.46 0-8.088 3.63-8.088 8.09 0 .93.151 1.86.46 2.835.254.805.609 1.435.76 1.705l.034.06.004.01 6.16 10.835c.133.235.379.38.647.38h.005c.266 0 .512-.14.647-.37.056-.095 5.542-9.435 5.817-9.895.495-.77 1.18-2.2 1.409-3.095.323-1.275.429-2.295.332-3.225z"/>
</svg>
