<svg xmlns="http://www.w3.org/2000/svg" width="24" height="24" viewBox="0 0 24 24">
    <g fill="none" fill-rule="evenodd">
        <path d="M0 0h24v24H0z"/>
        <path fill="#2B3A42" d="M21.761 18.82h-19.7a.277.277 0 0 1-.272-.273V6.856l9.674 6.366a.816.816 0 0 0 .902-.003l9.67-6.487v11.815c0 .149-.126.274-.274.274zm-1.73-12.722l-8.124 5.45-8.282-5.45H20.03zm3.039-1.116a.813.813 0 0 0-.376-.274 1.879 1.879 0 0 0-.933-.255h-19.7c-1.052 0-1.909.86-1.909 1.92v12.174c0 1.058.857 1.919 1.91 1.919h19.7c1.052 0 1.909-.861 1.909-1.92V6.373c0-.548-.233-1.04-.601-1.39z"/>
    </g>
</svg>
