<svg xmlns="http://www.w3.org/2000/svg" width="24" height="24" viewBox="0 0 24 24">
    <g fill="none" fill-rule="evenodd">
        <circle cx="12" cy="12" r="12" fill="#FEE7CF"/>
        <path fill="#FE8A12" d="M10.072 10.117c0 1.026.784 1.86 1.747 1.86.964 0 1.748-.834 1.748-1.86 0-1.024-.784-1.856-1.748-1.856-.963 0-1.747.832-1.747 1.856zM11.819 6C9.713 6 8 7.821 8 10.06c0 .466.071.933.217 1.422.12.404.287.72.359.855l.016.03.002.006 2.909 5.436c.063.118.179.191.306.191.128 0 .244-.07.307-.186.027-.047 2.618-4.734 2.748-4.965.234-.386.557-1.104.665-1.553.153-.64.202-1.151.157-1.618C15.48 7.583 13.818 6 11.819 6z"/>
        <g fill="#FE8A12">
            <path d="M18.164 13.6a.669.669 0 0 0 0-1.337.666.666 0 0 0-.666.666v.007c0 .368.298.663.666.663M18.164 11.22a.666.666 0 0 0 .667-.666V7.036a.666.666 0 1 0-1.333 0v3.518c0 .368.298.667.666.667"/>
        </g>
    </g>
</svg>
