<svg xmlns="http://www.w3.org/2000/svg" width="24" height="24" viewBox="0 0 24 24">
    <path fill="#2B3A42" fill-rule="evenodd" d="M12.661 7.483a4.294 4.294 0 0 0-4.29-4.286 4.295 4.295 0 0 0-4.29 4.286 4.296 4.296 0 0 0 4.29 4.291 4.295 4.295 0 0 0 4.29-4.29zm7.97-.557a3.5 3.5 0 0 0-3.495-3.494 3.5 3.5 0 0 0-3.495 3.494 3.497 3.497 0 0 0 3.495 3.495 3.497 3.497 0 0 0 3.494-3.495zM22.26 16.7h-5.649v-.029c0-1.953-1.341-4.022-3.83-4.022h-.11c.25-.235.572-.403.968-.403.273 0 1.115-.005 2.145-.01 1.621-.01 3.71-.019 4.78-.019 1.342 0 1.696 1.21 1.696 1.848v2.635zm-7.089 3.567h-13.6v-3.341c0-.84.331-1.67.885-2.213.283-.278.764-.624 1.416-.59.36-.01 1.503-.005 2.886-.015 2.067-.01 4.675-.019 6.024-.019 1.642 0 2.39 1.34 2.39 2.582v3.596zm.606-9.47c-1.027.004-1.866.009-2.124.009H13.6c-1.13 0-2.137.71-2.664 1.843-1.3.005-2.854.014-4.185.02-1.373.009-2.507.014-2.86.014h-.004c-.9-.03-1.76.336-2.439 1.003-.824.806-1.316 2.02-1.316 3.24v4.06c0 .399.322.72.72.72h15.04a.72.72 0 0 0 .72-.72V18.14h6.368a.72.72 0 0 0 .72-.72v-3.355c0-1.594-1.1-3.288-3.136-3.288-1.072 0-3.164.01-4.787.02z"/>
</svg>
