<svg xmlns="http://www.w3.org/2000/svg" width="16" height="16" viewBox="0 0 16 16">
    <path fill="#2B3A42" fill-rule="evenodd" d="M10.97 8.689H8.098a.618.618 0 0 1-.615-.616V3.651a.615.615 0 1 1 1.23 0v3.807h2.257a.615.615 0 1 1 0 1.23M8.098 1.408a6.674 6.674 0 0 0-6.666 6.666 6.674 6.674 0 0 0 6.666 6.667 6.674 6.674 0 0 0 6.667-6.667 6.674 6.674 0 0 0-6.667-6.666zm0 14.564c-4.352 0-7.897-3.543-7.897-7.898C.201 3.72 3.746.176 8.098.176c4.357 0 7.898 3.543 7.898 7.897 0 4.355-3.54 7.898-7.898 7.898z"/>
</svg>
