<svg xmlns="http://www.w3.org/2000/svg" width="16" height="16" fill="none" viewBox="0 0 16 16">
    <path fill="#2B3A42" fill-rule="evenodd" d="M11.372.8c-1.704.004-2.73.906-3.289 1.848C7.511 1.706 6.461.804 4.717.8 2.409.8.8 3.067.8 5.099c0 1.902.943 3.004 2.656 4.998 1.613 1.883 4.214 4.76 4.24 4.791l.016.012.007.011c.004.004.01.004.014.008.048.046.1.08.156.104.005.004.011.004.016.004.06.023.122.038.184.038a.532.532 0 0 0 .19-.038c.004 0 .01-.004.014-.004a.589.589 0 0 0 .16-.108l.013-.011c.003 0 .003-.004.006-.008.005-.004.01-.008.016-.015.025-.027 2.558-2.905 4.127-4.787C14.282 8.096 15.2 6.997 15.2 5.099c0-2.032-1.572-4.3-3.828-4.3z" clip-rule="evenodd"/>
</svg>
