<svg xmlns="http://www.w3.org/2000/svg" width="18" height="18" fill="none" viewBox="0 0 18 18">
    <path fill="#2B3A42" fill-rule="evenodd" d="M3.6 11.662A2.665 2.665 0 0 1 .939 9a2.665 2.665 0 0 1 2.663-2.662A2.665 2.665 0 0 1 6.263 9 2.665 2.665 0 0 1 3.6 11.662zm0-4.32A1.66 1.66 0 0 0 1.944 9 1.66 1.66 0 0 0 3.6 10.658 1.66 1.66 0 0 0 5.259 9 1.66 1.66 0 0 0 3.6 7.342zM14.4 6.263A2.665 2.665 0 0 1 11.738 3.6 2.665 2.665 0 0 1 14.4.938a2.665 2.665 0 0 1 2.663 2.663A2.665 2.665 0 0 1 14.4 6.263zm0-4.32A1.66 1.66 0 0 0 12.743 3.6 1.66 1.66 0 0 0 14.4 5.258a1.66 1.66 0 0 0 1.658-1.657A1.66 1.66 0 0 0 14.4 1.943zM14.4 17.063a2.665 2.665 0 0 1-2.662-2.662 2.665 2.665 0 0 1 2.662-2.663 2.665 2.665 0 0 1 2.663 2.662 2.665 2.665 0 0 1-2.662 2.663zm0-4.32a1.66 1.66 0 0 0-1.657 1.657 1.66 1.66 0 0 0 1.657 1.658 1.66 1.66 0 0 0 1.658-1.658 1.66 1.66 0 0 0-1.658-1.657z" clip-rule="evenodd"/>
    <path fill="#2B3A42" fill-rule="evenodd" d="M12.235 13.921l-6.952-3.475.483-.967 6.952 3.477-.483.966zM5.766 8.521l-.483-.966 6.952-3.476.483.966-6.952 3.476z" clip-rule="evenodd"/>
</svg>
