<svg xmlns="http://www.w3.org/2000/svg" width="24" height="24" viewBox="0 0 24 24">
    <g fill="none" fill-rule="evenodd">
        <circle cx="12" cy="12" r="12" fill="#FEE7CF"/>
        <path fill="#FE8A12" d="M15.44 9.446a.403.403 0 0 1 .377.017.36.36 0 0 1 .183.31v4.573a.36.36 0 0 1-.195.318.4.4 0 0 1-.389-.002l-2.77-1.55v.541c0 .742-.637 1.347-1.42 1.347H5.419C4.637 15 4 14.395 4 13.653v-3.306C4 9.605 4.637 9 5.42 9h5.806c.783 0 1.42.605 1.42 1.347v.426l2.794-1.327z"/>
        <g fill="#FE8A12">
            <path d="M18.164 13.6a.669.669 0 0 0 0-1.337.666.666 0 0 0-.666.666v.007c0 .368.298.663.666.663M18.164 11.22a.666.666 0 0 0 .667-.666V7.036a.666.666 0 1 0-1.333 0v3.518c0 .368.298.667.666.667"/>
        </g>
    </g>
</svg>
