<svg xmlns="http://www.w3.org/2000/svg" width="24" height="24" viewBox="0 0 24 24">
    <g fill="none" fill-rule="evenodd">
        <circle cx="12" cy="12" r="12" fill="#CCEDF3"/>
        <path fill="#32B9D1" d="M18.288 8.72a.444.444 0 0 1 .435.022c.132.08.212.223.212.378v5.561c0 .161-.086.31-.225.388a.444.444 0 0 1-.449-.003l-3.198-1.886v.658a1.64 1.64 0 0 1-1.639 1.639H6.722a1.64 1.64 0 0 1-1.638-1.639V9.817a1.64 1.64 0 0 1 1.638-1.638h6.702a1.64 1.64 0 0 1 1.639 1.638v.518l3.225-1.614z"/>
    </g>
</svg>
