<svg xmlns="http://www.w3.org/2000/svg" width="24" height="24" viewBox="0 0 24 24">
    <g fill="none" fill-rule="evenodd">
        <circle cx="12" cy="12" r="12" fill="#FEE7CF"/>
        <path fill="#FE8A12" d="M12.81 17.62c-2.462-1.176-6.695-5.829-7.333-8.051-.378-.986-.537-1.76-.457-2.24.025-.15.077-.459 1.924-2.061l.025-.018c.264-.2.91-.453 1.456.018.446.38 1.445 1.909 1.64 2.21.066.107.575.977.19 1.63-.178.3-.512.961-.687 1.313.403.58 1.665 2.281 3.469 3.616l1.178-.638a1.851 1.851 0 0 1 1.332-.011l.1.05 2.392 1.624c.044.035.425.372.46.866.014.206-.026.513-.3.82-.089.098-.2.232-.324.38-.643.77-1.13 1.326-1.548 1.454-.097.03-.213.045-.345.045-.78 0-2.096-.491-3.172-1.007z"/>
        <g fill="#FE8A12">
            <path d="M18.164 13.6a.669.669 0 0 0 0-1.337.666.666 0 0 0-.666.666v.007c0 .368.298.663.666.663M18.164 11.22a.666.666 0 0 0 .667-.666V7.036a.666.666 0 1 0-1.333 0v3.518c0 .368.298.667.666.667"/>
        </g>
    </g>
</svg>
